<svg width="41" height="40" viewBox="0 0 41 40" fill="none" xmlns="http://www.w3.org/2000/svg">
<g id="Linear / Medicine / Pulse">
<path id="Vector" d="M8.83325 24.9998H11.1573C12.4673 24.9998 13.1222 24.9998 13.6749 25.2956C14.2277 25.5914 14.591 26.1364 15.3176 27.2263L15.5839 27.6258C16.2884 28.6824 16.6406 29.2108 17.118 29.1824C17.5954 29.1541 17.8828 28.5878 18.4571 27.4551L21.7339 20.9939C22.3311 19.8163 22.6298 19.2274 23.1184 19.2078C23.6069 19.1881 23.9518 19.7513 24.6416 20.8773L25.7036 22.6113C26.4186 23.7784 26.7759 24.3619 27.3453 24.6809C27.9144 24.9998 28.5988 24.9998 29.9674 24.9998H32.1666" stroke="#282C44" stroke-width="2" stroke-linecap="round"/>
<path id="Vector_2" d="M3.83325 20C3.83325 12.1433 3.83325 8.21492 6.27404 5.77416C8.7148 3.33337 12.6432 3.33337 20.4999 3.33337C28.3566 3.33337 32.2851 3.33337 34.7258 5.77416C37.1666 8.21492 37.1666 12.1433 37.1666 20C37.1666 27.8567 37.1666 31.7852 34.7258 34.2259C32.2851 36.6667 28.3566 36.6667 20.4999 36.6667C12.6432 36.6667 8.7148 36.6667 6.27404 34.2259C3.83325 31.7852 3.83325 27.8567 3.83325 20Z" stroke="#282C44" stroke-width="2"/>
</g>
</svg>
