<svg width="44" height="44" viewBox="0 0 44 44" fill="none" xmlns="http://www.w3.org/2000/svg">
<rect width="44" height="44" rx="8" fill="#F99400"/>
<path d="M34.6552 16.2218C34.2625 15.1667 33.5497 14.2512 32.5156 13.4721C31.9159 13.0205 31.1318 12.6156 30.2001 12.2474L31.2315 8.25739L27.9714 7.40301L26.9743 11.258L24.8784 10.7095L25.8748 6.85444L22.6148 6L21.6177 9.85503L14.6968 8.0418L13.858 11.2859L14.7749 11.5266C15.3853 11.686 15.7862 11.8514 15.9755 12.0203C16.1621 12.1884 16.2766 12.3803 16.3157 12.594C16.3581 12.8082 16.2854 13.2612 16.1062 13.9563L12.7249 27.0309C12.5483 27.7138 12.3901 28.143 12.2506 28.3153C12.1111 28.4895 11.9205 28.6001 11.6753 28.6495C11.4294 28.6983 10.7011 28.5654 10.0907 28.4061L9 30.7157C9.24997 31.086 9.51406 31.4454 9.79227 31.7926L15.5552 33.302L14.8504 36.0267C15.8414 36.5638 16.8931 37.0011 17.9932 37.3266L18.8131 34.1558L20.8383 34.6868C20.8619 34.6922 20.8861 34.697 20.9097 34.7031L20.1087 37.8027C20.94 37.9329 21.7915 38 22.6593 38C22.9564 38 23.2515 37.9919 23.5445 37.9762L24.2196 35.3662C25.3089 35.5046 26.2467 35.5256 27.0269 35.4252C28.5299 35.2326 29.7911 34.7105 30.8064 33.8568C31.8223 33.0051 32.4913 31.9567 32.8134 30.7117C33.0802 29.6715 33.0781 28.6638 32.8087 27.6887C32.5379 26.717 32.0467 25.8822 31.3326 25.1946C30.8435 24.7084 30.0869 24.1795 29.0696 23.6166C30.1772 23.5346 31.1062 23.3088 31.8668 22.9399C32.622 22.5689 33.2553 22.0807 33.7666 21.4704C34.2739 20.8628 34.6304 20.1712 34.8297 19.3981C35.1052 18.3348 35.046 17.2756 34.6552 16.2218ZM26.9258 28.5112C26.7163 29.3269 26.3066 29.9664 25.7017 30.4309C25.0953 30.8927 24.4425 31.1328 23.7452 31.1477C23.0486 31.1626 22.2052 31.0419 21.2168 30.7828L19.517 30.3373C18.9491 30.1888 18.6123 30.0668 18.4998 29.9718C18.3879 29.8755 18.3253 29.744 18.3091 29.5717C18.295 29.4354 18.3765 29.0116 18.5509 28.2888L19.8633 23.2131L22.8768 24.0024C24.2 24.3496 25.1505 24.7307 25.732 25.1457C26.3121 25.5594 26.7014 26.0517 26.8988 26.6179C27.0963 27.1855 27.1057 27.8155 26.9258 28.5112ZM28.9577 18.7973C28.8047 19.3906 28.5076 19.8721 28.0664 20.241C27.6271 20.6112 27.0571 20.8242 26.3599 20.8798C25.6619 20.936 24.6453 20.7903 23.3087 20.4404L20.7554 19.7711L22.2335 14.0546L24.7868 14.7232C26.2798 15.1145 27.2903 15.4786 27.8212 15.815C28.3513 16.1514 28.7125 16.5799 28.9072 17.0953C29.0992 17.6126 29.118 18.1795 28.9577 18.7973Z" fill="white"/>
</svg>
