<svg width="20" height="20" viewBox="0 0 20 20" fill="none" xmlns="http://www.w3.org/2000/svg">
<g id="Category">
<path id="Stroke 1" fill-rule="evenodd" clip-rule="evenodd" d="M1 4.49997C1 1.87476 1.02811 0.999969 4.5 0.999969C7.97189 0.999969 8 1.87476 8 4.49997C8 7.12518 8.01107 7.99997 4.5 7.99997C0.988927 7.99997 1 7.12518 1 4.49997Z" stroke="#282C44" stroke-width="1.5" stroke-linecap="round" stroke-linejoin="round"/>
<path id="Stroke 3" fill-rule="evenodd" clip-rule="evenodd" d="M12 4.49997C12 1.87476 12.0281 0.999969 15.5 0.999969C18.9719 0.999969 19 1.87476 19 4.49997C19 7.12518 19.0111 7.99997 15.5 7.99997C11.9889 7.99997 12 7.12518 12 4.49997Z" stroke="#282C44" stroke-width="1.5" stroke-linecap="round" stroke-linejoin="round"/>
<path id="Stroke 5" fill-rule="evenodd" clip-rule="evenodd" d="M1 15.5C1 12.8748 1.02811 12 4.5 12C7.97189 12 8 12.8748 8 15.5C8 18.1252 8.01107 19 4.5 19C0.988927 19 1 18.1252 1 15.5Z" stroke="#282C44" stroke-width="1.5" stroke-linecap="round" stroke-linejoin="round"/>
<path id="Stroke 7" fill-rule="evenodd" clip-rule="evenodd" d="M12 15.5C12 12.8748 12.0281 12 15.5 12C18.9719 12 19 12.8748 19 15.5C19 18.1252 19.0111 19 15.5 19C11.9889 19 12 18.1252 12 15.5Z" stroke="#282C44" stroke-width="1.5" stroke-linecap="round" stroke-linejoin="round"/>
</g>
</svg>
