<svg width="36" height="37" viewBox="0 0 36 37" fill="none" xmlns="http://www.w3.org/2000/svg">
<g id="Linear / Messages, Conversation / Chat Round Line">
<path id="Vector" d="M18 33.5C26.2842 33.5 33 26.7842 33 18.5C33 10.2157 26.2842 3.5 18 3.5C9.71572 3.5 3 10.2157 3 18.5C3 20.8995 3.56343 23.1674 4.56519 25.1787C4.83141 25.7132 4.92001 26.3241 4.76568 26.9009L3.87227 30.2401C3.48443 31.6895 4.81051 33.0155 6.26002 32.6278L9.59909 31.7344C10.1759 31.58 10.7868 31.6686 11.3213 31.9347C13.3326 32.9366 15.6005 33.5 18 33.5Z" stroke="#1C274C" stroke-width="2"/>
<path id="Vector_2" d="M12 16.25H24" stroke="#1C274C" stroke-width="2" stroke-linecap="round"/>
<path id="Vector_3" d="M12 21.5H20.25" stroke="#1C274C" stroke-width="2" stroke-linecap="round"/>
</g>
</svg>
