<svg width="24" height="24" viewBox="0 0 24 24" fill="none" xmlns="http://www.w3.org/2000/svg">
<path d="M16.1 13.2996L14.65 11.8496C14.8 11.0663 14.575 10.3329 13.975 9.64961C13.375 8.96628 12.6 8.69961 11.65 8.84961L10.2 7.39961C10.4834 7.26628 10.7707 7.16628 11.062 7.09961C11.354 7.03294 11.6667 6.99961 12 6.99961C13.25 6.99961 14.3127 7.43694 15.188 8.31161C16.0627 9.18694 16.5 10.2496 16.5 11.4996C16.5 11.8329 16.4667 12.1456 16.4 12.4376C16.3334 12.7289 16.2334 13.0163 16.1 13.2996ZM19.3 16.4496L17.85 15.0496C18.4834 14.5663 19.046 14.0369 19.538 13.4616C20.0294 12.8869 20.45 12.2329 20.8 11.4996C19.9667 9.81628 18.7707 8.47861 17.212 7.48661C15.654 6.49528 13.9167 5.99961 12 5.99961C11.5167 5.99961 11.0417 6.03294 10.575 6.09961C10.1084 6.16628 9.65005 6.26628 9.20005 6.39961L7.65005 4.84961C8.33338 4.56628 9.03338 4.35361 9.75005 4.21161C10.4667 4.07028 11.2167 3.99961 12 3.99961C14.3834 3.99961 16.525 4.62861 18.425 5.88661C20.325 7.14528 21.75 8.78294 22.7001 10.7996C22.75 10.8829 22.7834 10.9869 22.8 11.1116C22.8167 11.2369 22.8251 11.3663 22.8251 11.4996C22.8251 11.6329 22.8127 11.7619 22.788 11.8866C22.7627 12.0119 22.7334 12.1163 22.7001 12.1996C22.3167 13.0496 21.8377 13.8329 21.2631 14.5496C20.6877 15.2663 20.0334 15.8996 19.3 16.4496ZM19.1 21.8996L15.6 18.4496C15.0167 18.6329 14.4294 18.7706 13.838 18.8626C13.246 18.9539 12.6334 18.9996 12 18.9996C9.61672 18.9996 7.47505 18.3706 5.57505 17.1126C3.67505 15.8539 2.25005 14.2163 1.30005 12.1996C1.25005 12.1163 1.21672 12.0119 1.20005 11.8866C1.18338 11.7619 1.17505 11.6329 1.17505 11.4996C1.17505 11.3663 1.18338 11.2413 1.20005 11.1246C1.21672 11.0079 1.25005 10.9079 1.30005 10.8246C1.65005 10.0746 2.06672 9.38294 2.55005 8.74961C3.03338 8.11628 3.56672 7.53294 4.15005 6.99961L2.07505 4.89961C1.89172 4.71628 1.80005 4.48694 1.80005 4.21161C1.80005 3.93694 1.90005 3.69961 2.10005 3.49961C2.28338 3.31628 2.51672 3.22461 2.80005 3.22461C3.08338 3.22461 3.31672 3.31628 3.50005 3.49961L20.5 20.4996C20.6834 20.6829 20.7794 20.9123 20.788 21.1876C20.796 21.4623 20.7001 21.6996 20.5 21.8996C20.3167 22.0829 20.0834 22.1746 19.8 22.1746C19.5167 22.1746 19.2834 22.0829 19.1 21.8996ZM5.55005 8.39961C5.06672 8.83294 4.62505 9.30794 4.22505 9.82461C3.82505 10.3413 3.48338 10.8996 3.20005 11.4996C4.03338 13.1829 5.22905 14.5203 6.78705 15.5116C8.34572 16.5036 10.0834 16.9996 12 16.9996C12.3334 16.9996 12.6584 16.9789 12.975 16.9376C13.2917 16.8956 13.6167 16.8496 13.95 16.7996L13.05 15.8496C12.8667 15.8996 12.6917 15.9369 12.525 15.9616C12.3584 15.9869 12.1834 15.9996 12 15.9996C10.75 15.9996 9.68738 15.5623 8.81205 14.6876C7.93738 13.8123 7.50005 12.7496 7.50005 11.4996C7.50005 11.3163 7.51238 11.1413 7.53705 10.9746C7.56238 10.8079 7.60005 10.6329 7.65005 10.4496L5.55005 8.39961Z" fill="black"/>
</svg>
