<svg width="25" height="25" viewBox="0 0 25 25" fill="none" xmlns="http://www.w3.org/2000/svg">
<g id="Linear / Notes / Document Text">
<path id="Vector" d="M3.25684 10.5752C3.25684 6.80396 3.25684 4.91835 4.42841 3.74677C5.59999 2.5752 7.4856 2.5752 11.2568 2.5752H13.2568C17.028 2.5752 18.9137 2.5752 20.0852 3.74677C21.2568 4.91835 21.2568 6.80396 21.2568 10.5752V14.5752C21.2568 18.3464 21.2568 20.2321 20.0852 21.4036C18.9137 22.5752 17.028 22.5752 13.2568 22.5752H11.2568C7.4856 22.5752 5.59999 22.5752 4.42841 21.4036C3.25684 20.2321 3.25684 18.3464 3.25684 14.5752V10.5752Z" stroke="white" stroke-width="1.5"/>
<path id="Vector_2" d="M8.25684 12.5752H16.2568" stroke="white" stroke-width="1.5" stroke-linecap="round"/>
<path id="Vector_3" d="M8.25684 8.5752H16.2568" stroke="white" stroke-width="1.5" stroke-linecap="round"/>
<path id="Vector_4" d="M8.25684 16.5752H13.2568" stroke="white" stroke-width="1.5" stroke-linecap="round"/>
</g>
</svg>
