<svg width="36" height="36" viewBox="0 0 36 36" fill="none" xmlns="http://www.w3.org/2000/svg">
<g id="Icons">
<path id="Vector" d="M18 33C25.4558 33 31.5 26.9558 31.5 19.5C31.5 12.0442 25.4558 6 18 6C10.5442 6 4.5 12.0442 4.5 19.5C4.5 26.9558 10.5442 33 18 33Z" stroke="#1C274C" stroke-width="2"/>
<path id="Vector_2" d="M20.0611 1.655L15 1.65167" stroke="#1C274C" stroke-width="2" stroke-linecap="round" stroke-linejoin="round"/>
<path id="Vector_3" d="M13.7936 16.4537L16.8162 14.0467C18.77 12.4908 19.7469 11.7129 20.3609 12.0971C20.975 12.4813 20.6561 13.6711 20.0186 16.0506L19.9584 16.275C19.7285 17.1332 19.6134 17.5623 19.8156 17.9049L19.8263 17.9228C20.0358 18.2613 20.4825 18.381 21.3758 18.6204C22.9832 19.0511 23.787 19.2665 23.928 19.8267C23.9303 19.836 23.9325 19.8453 23.9345 19.8546C24.0582 20.4185 23.4242 20.9234 22.1561 21.9332L19.1336 24.3402C17.1797 25.896 16.2029 26.6741 15.5888 26.2898C14.9748 25.9055 15.2936 24.7158 15.9312 22.3362L15.9914 22.112C16.2213 21.2537 16.3364 20.8245 16.1342 20.4819L16.1235 20.4641C15.914 20.1255 15.4673 20.0058 14.574 19.7666C12.9665 19.3358 12.1628 19.1204 12.0218 18.5601C12.0195 18.5508 12.0173 18.5415 12.0152 18.5322C11.8915 17.9685 12.5255 17.4635 13.7936 16.4537Z" stroke="#1C274C" stroke-width="2"/>
</g>
</svg>
