<svg width="24" height="25" viewBox="0 0 24 25" fill="none" xmlns="http://www.w3.org/2000/svg">
<g id="Icon / Face ID">
<path id="face id" fill-rule="evenodd" clip-rule="evenodd" d="M1.21875 6.8605V4.16519C1.21875 2.69191 2.41737 1.49332 3.89062 1.49332H6.58594C6.92248 1.49332 7.19531 1.22048 7.19531 0.883942C7.19531 0.547403 6.92248 0.274567 6.58594 0.274567H3.89062C1.74534 0.274567 0 2.01989 0 4.16519V6.8605C0 7.19704 0.272836 7.46988 0.609375 7.46988C0.945914 7.46988 1.21875 7.19704 1.21875 6.8605ZM6.58594 23.0558C6.92248 23.0558 7.19531 23.3287 7.19531 23.6652C7.19531 24.0017 6.92248 24.2746 6.58594 24.2746H3.89062C1.74534 24.2746 0 22.5292 0 20.3839V17.6886C0 17.3521 0.272836 17.0793 0.609375 17.0793C0.945914 17.0793 1.21875 17.3521 1.21875 17.6886V20.3839C1.21875 21.8572 2.41737 23.0558 3.89062 23.0558H6.58594ZM24 17.6886V20.3839C24 22.5292 22.2547 24.2746 20.1094 24.2746H17.4141C17.0775 24.2746 16.8047 24.0017 16.8047 23.6652C16.8047 23.3287 17.0775 23.0558 17.4141 23.0558H20.1094C21.5826 23.0558 22.7812 21.8572 22.7812 20.3839V17.6886C22.7812 17.3521 23.0541 17.0793 23.3906 17.0793C23.7272 17.0793 24 17.3521 24 17.6886ZM24 4.16519V6.8605C24 7.19704 23.7272 7.46988 23.3906 7.46988C23.0541 7.46988 22.7812 7.19704 22.7812 6.8605V4.16519C22.7812 2.69191 21.5826 1.49332 20.1094 1.49332H17.4141C17.0775 1.49332 16.8047 1.22048 16.8047 0.883942C16.8047 0.547403 17.0775 0.274567 17.4141 0.274567H20.1094C22.2547 0.274567 24 2.01989 24 4.16519ZM16.2054 18.0129C16.4621 17.7758 16.478 17.3754 16.2408 17.1187C16.0037 16.8619 15.6033 16.8461 15.3466 17.0832C14.4331 17.927 13.2446 18.3918 12 18.3918C10.7554 18.3918 9.56693 17.927 8.65341 17.0832C8.39662 16.8461 7.99634 16.862 7.75917 17.1187C7.52203 17.3754 7.5379 17.7758 7.79463 18.0129C8.94272 19.0734 10.4362 19.6574 12 19.6574C13.5638 19.6574 15.0573 19.0734 16.2054 18.0129ZM13.2656 9.32144V13.8214C13.2656 14.7132 12.5402 15.4386 11.6484 15.4386H11.1328C10.7833 15.4386 10.5 15.1553 10.5 14.8058C10.5 14.4563 10.7833 14.173 11.1328 14.173H11.6484C11.8423 14.173 12 14.0153 12 13.8214V9.32144C12 8.97194 12.2833 8.68863 12.6328 8.68863C12.9823 8.68863 13.2656 8.97194 13.2656 9.32144ZM17.625 11.091V9.28629C17.625 8.95621 17.3574 8.68863 17.0273 8.68863C16.6973 8.68863 16.4297 8.95621 16.4297 9.28629V11.091C16.4297 11.421 16.6973 11.6886 17.0273 11.6886C17.3574 11.6886 17.625 11.421 17.625 11.091ZM6.51562 11.091C6.51562 11.421 6.78321 11.6886 7.11328 11.6886C7.44335 11.6886 7.71094 11.421 7.71094 11.091V9.28629C7.71094 8.95621 7.44335 8.68863 7.11328 8.68863C6.78321 8.68863 6.51562 8.95621 6.51562 9.28629V11.091Z" fill="#282C44"/>
</g>
</svg>
