<svg width="24" height="25" viewBox="0 0 24 25" fill="none" xmlns="http://www.w3.org/2000/svg">
<g id="fi:sun" clip-path="url(#clip0_70_9288)">
<path id="Vector" d="M12 21.1373V23.1373" stroke="#282C44" stroke-width="1.5" stroke-linecap="round" stroke-linejoin="round"/>
<path id="Vector_2" d="M18.36 18.4973L19.78 19.9173" stroke="#282C44" stroke-width="1.5" stroke-linecap="round" stroke-linejoin="round"/>
<path id="Vector_3" d="M4.22 19.9173L5.64 18.4973" stroke="#282C44" stroke-width="1.5" stroke-linecap="round" stroke-linejoin="round"/>
<path id="Vector_4" d="M21 12.1373H23" stroke="#282C44" stroke-width="1.5" stroke-linecap="round" stroke-linejoin="round"/>
<path id="Vector_5" d="M1 12.1373H3" stroke="#282C44" stroke-width="1.5" stroke-linecap="round" stroke-linejoin="round"/>
<path id="Vector_6" d="M12 17.1373C14.7614 17.1373 17 14.8987 17 12.1373C17 9.37584 14.7614 7.13727 12 7.13727C9.23858 7.13727 7 9.37584 7 12.1373C7 14.8987 9.23858 17.1373 12 17.1373Z" stroke="#282C44" stroke-width="1.5" stroke-linecap="round" stroke-linejoin="round"/>
<path id="Vector_7" d="M18.36 5.77724L19.78 4.35724" stroke="#282C44" stroke-width="1.5" stroke-linecap="round" stroke-linejoin="round"/>
<path id="Vector_8" d="M4.22 4.35724L5.64 5.77724" stroke="#282C44" stroke-width="1.5" stroke-linecap="round" stroke-linejoin="round"/>
<path id="Vector_9" d="M12 1.13727V3.13727" stroke="#282C44" stroke-width="1.5" stroke-linecap="round" stroke-linejoin="round"/>
</g>
<defs>
<clipPath id="clip0_70_9288">
<rect width="24" height="24" fill="white" transform="translate(0 0.137268)"/>
</clipPath>
</defs>
</svg>
