<svg width="25" height="24" viewBox="0 0 25 24" fill="none" xmlns="http://www.w3.org/2000/svg">
<path fill-rule="evenodd" clip-rule="evenodd" d="M10.5801 18.5928H4.27905C3.86505 18.5928 3.52905 18.2568 3.52905 17.8428C3.52905 17.4288 3.86505 17.0928 4.27905 17.0928H10.5801C10.9941 17.0928 11.3301 17.4288 11.3301 17.8428C11.3301 18.2568 10.9941 18.5928 10.5801 18.5928Z" fill="#282C44"/>
<path fill-rule="evenodd" clip-rule="evenodd" d="M19.6909 8.90045H13.3909C12.9769 8.90045 12.6409 8.56445 12.6409 8.15045C12.6409 7.73645 12.9769 7.40045 13.3909 7.40045H19.6909C20.1049 7.40045 20.4409 7.73645 20.4409 8.15045C20.4409 8.56445 20.1049 8.90045 19.6909 8.90045Z" fill="#282C44"/>
<mask id="mask0_356_8323" style="mask-type:luminance" maskUnits="userSpaceOnUse" x="3" y="5" width="7" height="7">
<path fill-rule="evenodd" clip-rule="evenodd" d="M3.5 5.00043H9.7258V11.192H3.5V5.00043Z" fill="white"/>
</mask>
<g mask="url(#mask0_356_8323)">
<path fill-rule="evenodd" clip-rule="evenodd" d="M6.61276 6.5C5.72376 6.5 4.99976 7.216 4.99976 8.097C4.99976 8.977 5.72376 9.692 6.61276 9.692C7.50276 9.692 8.22576 8.977 8.22576 8.097C8.22576 7.216 7.50276 6.5 6.61276 6.5ZM6.61276 11.192C4.89676 11.192 3.49976 9.804 3.49976 8.097C3.49976 6.39 4.89676 5 6.61276 5C8.32976 5 9.72576 6.39 9.72576 8.097C9.72576 9.804 8.32976 11.192 6.61276 11.192Z" fill="#282C44"/>
</g>
<path fill-rule="evenodd" clip-rule="evenodd" d="M17.8877 16.208C16.9977 16.208 16.2737 16.924 16.2737 17.804C16.2737 18.685 16.9977 19.4 17.8877 19.4C18.7767 19.4 19.4997 18.685 19.4997 17.804C19.4997 16.924 18.7767 16.208 17.8877 16.208ZM17.8877 20.9C16.1707 20.9 14.7737 19.511 14.7737 17.804C14.7737 16.097 16.1707 14.708 17.8877 14.708C19.6037 14.708 20.9997 16.097 20.9997 17.804C20.9997 19.511 19.6037 20.9 17.8877 20.9Z" fill="#282C44"/>
</svg>
