<svg width="24" height="25" viewBox="0 0 24 25" fill="none" xmlns="http://www.w3.org/2000/svg">
<g id="Finger Print" clip-path="url(#clip0_1617_10170)">
<path id="Vector" d="M18.4555 3.23857C18.3721 3.23857 18.2887 3.21457 18.2157 3.16657C16.2138 1.97857 14.4831 1.47457 12.4083 1.47457C10.3439 1.47457 8.38374 2.03857 6.60086 3.16657C6.3402 3.32257 6.02741 3.21457 5.88145 2.92657C5.81642 2.78622 5.80184 2.62211 5.84083 2.46952C5.87982 2.31693 5.96928 2.18805 6.08997 2.11057C8.02925 0.898567 10.1562 0.274567 12.4083 0.274567C14.6291 0.274567 16.5683 0.838567 18.6953 2.09857C18.9559 2.25457 19.0498 2.61457 18.9142 2.90257C18.873 3.0026 18.8081 3.08721 18.7269 3.14665C18.6458 3.20609 18.5517 3.23795 18.4555 3.23857ZM3.52512 9.53857C3.42901 9.5396 3.33453 9.50997 3.25217 9.45296C3.1698 9.39596 3.10276 9.31381 3.05849 9.21563C3.01421 9.11744 2.99444 9.00706 3.00135 8.89673C3.00826 8.7864 3.04159 8.68043 3.09764 8.59057C4.12984 6.91057 5.44355 5.59057 7.00748 4.66657C10.2813 2.72257 14.4727 2.71057 17.7569 4.65457C19.3209 5.57857 20.6346 6.88657 21.6668 8.55457C21.7068 8.61905 21.7353 8.69203 21.7506 8.76926C21.766 8.8465 21.7679 8.92648 21.7563 9.00458C21.7447 9.08267 21.7197 9.15735 21.6829 9.22428C21.646 9.29122 21.598 9.3491 21.5416 9.39457C21.3018 9.58657 20.9786 9.52657 20.8118 9.25057C19.8987 7.76302 18.6859 6.55244 17.2773 5.72257C14.285 3.95857 10.4586 3.95857 7.47666 5.73457C6.05869 6.57457 4.8701 7.77457 3.93174 9.28657C3.84833 9.45457 3.69194 9.53857 3.52512 9.53857ZM10.0415 24.0226C9.97314 24.0235 9.90535 24.008 9.8425 23.977C9.77966 23.946 9.72314 23.9002 9.67659 23.8426C8.76951 22.7986 8.27948 22.1266 7.58092 20.6746C6.86151 19.1986 6.48617 17.3986 6.48617 15.4666C6.48617 11.9026 9.13443 8.99857 12.3874 8.99857C15.6404 8.99857 18.2887 11.9026 18.2887 15.4666C18.2887 15.8026 18.0593 16.0666 17.7673 16.0666C17.4754 16.0666 17.246 15.8026 17.246 15.4666C17.246 12.5626 15.067 10.1986 12.3874 10.1986C9.70787 10.1986 7.52879 12.5626 7.52879 15.4666C7.52879 17.1946 7.86243 18.7906 8.49843 20.0866C9.16571 21.4666 9.62446 22.0546 10.4273 22.9906C10.6254 23.2306 10.6254 23.6026 10.4273 23.8426C10.3126 23.9626 10.1771 24.0226 10.0415 24.0226ZM17.5275 21.8026C16.2868 21.8026 15.1921 21.4426 14.2954 20.7346C12.7419 19.5226 11.814 17.5546 11.814 15.4666C11.814 15.1306 12.0433 14.8666 12.3353 14.8666C12.6272 14.8666 12.8566 15.1306 12.8566 15.4666C12.8566 17.1586 13.6073 18.7546 14.8793 19.7386C15.6195 20.3146 16.4849 20.5906 17.5275 20.5906C17.7778 20.5906 18.1948 20.5546 18.6119 20.4706C18.8934 20.4106 19.1645 20.6266 19.2166 20.9626C19.2687 21.2866 19.0811 21.5986 18.7891 21.6586C18.1948 21.7906 17.6735 21.8026 17.5275 21.8026ZM15.4319 24.2746C15.3902 24.2746 15.338 24.2626 15.2963 24.2506C13.6386 23.7226 12.5542 23.0146 11.4178 21.7306C10.6976 20.9121 10.1266 19.9366 9.73807 18.861C9.34958 17.7854 9.15145 16.6314 9.15528 15.4666C9.15528 13.5226 10.5941 11.9386 12.3666 11.9386C14.139 11.9386 15.5778 13.5226 15.5778 15.4666C15.5778 16.7506 16.5475 17.7946 17.7465 17.7946C18.9455 17.7946 19.9151 16.7506 19.9151 15.4666C19.9151 10.9426 16.5266 7.27057 12.3561 7.27057C9.39509 7.27057 6.68427 9.16657 5.4644 12.1066C5.05777 13.0786 4.84925 14.2186 4.84925 15.4666C4.84925 16.4026 4.92223 17.8786 5.54781 19.7986C5.65207 20.1106 5.51653 20.4586 5.24545 20.5666C4.97436 20.6866 4.672 20.5186 4.57817 20.2186C4.07577 18.7009 3.81785 17.0906 3.81705 15.4666C3.81705 14.0266 4.05686 12.7186 4.52604 11.5786C5.91273 8.23057 8.98846 6.05857 12.3561 6.05857C17.1001 6.05857 20.9578 10.2706 20.9578 15.4546C20.9578 17.3986 19.519 18.9826 17.7465 18.9826C15.974 18.9826 14.5352 17.3986 14.5352 15.4546C14.5352 14.1706 13.5656 13.1266 12.3666 13.1266C11.1675 13.1266 10.1979 14.1706 10.1979 15.4546C10.1979 17.5066 10.886 19.4266 12.1476 20.8666C13.1381 21.9946 14.0869 22.6186 15.557 23.0866C15.8385 23.1706 15.9949 23.5066 15.9219 23.8186C15.8698 24.0946 15.6508 24.2746 15.4319 24.2746Z" fill="#282C44"/>
</g>
<defs>
<clipPath id="clip0_1617_10170">
<rect width="24" height="24" fill="white" transform="translate(0 0.274567)"/>
</clipPath>
</defs>
</svg>
