<svg width="177" height="177" viewBox="0 0 177 177" fill="none" xmlns="http://www.w3.org/2000/svg">
<g id="icons-benefits 1">
<g id="Group" opacity="0.2">
<g id="Group_2">
<path id="Vector" d="M90.421 28.2581C90.1591 28.2581 89.9473 28.0457 89.9473 27.7843C89.9473 27.5229 90.1597 27.3105 90.421 27.3105C90.6824 27.3105 90.8948 27.5229 90.8948 27.7843C90.8948 28.0457 90.6824 28.2581 90.421 28.2581Z" fill="#4B73F8"/>
<path id="Vector_2" d="M90.421 32.7928C90.1591 32.7928 89.9473 32.5804 89.9473 32.319C89.9473 32.0577 90.1597 31.8453 90.421 31.8453C90.6824 31.8453 90.8948 32.0577 90.8948 32.319C90.8948 32.5804 90.6824 32.7928 90.421 32.7928Z" fill="#4B73F8"/>
<path id="Vector_3" d="M90.421 37.3282C90.1591 37.3282 89.9473 37.1158 89.9473 36.8544C89.9473 36.593 90.1597 36.3806 90.421 36.3806C90.6824 36.3806 90.8948 36.593 90.8948 36.8544C90.8948 37.1158 90.6824 37.3282 90.421 37.3282Z" fill="#4B73F8"/>
<path id="Vector_4" d="M90.421 41.8635C90.1591 41.8635 89.9473 41.6511 89.9473 41.3897C89.9473 41.1284 90.1597 40.916 90.421 40.916C90.6824 40.916 90.8948 41.1284 90.8948 41.3897C90.8948 41.6511 90.6824 41.8635 90.421 41.8635Z" fill="#4B73F8"/>
<path id="Vector_5" d="M90.421 46.3982C90.1591 46.3982 89.9473 46.1858 89.9473 45.9244C89.9473 45.6631 90.1597 45.4507 90.421 45.4507C90.6824 45.4507 90.8948 45.6631 90.8948 45.9244C90.8948 46.1858 90.6824 46.3982 90.421 46.3982Z" fill="#4B73F8"/>
<path id="Vector_6" d="M90.421 50.9336C90.1591 50.9336 89.9473 50.7212 89.9473 50.4598C89.9473 50.1984 90.1597 49.986 90.421 49.986C90.6824 49.986 90.8948 50.1984 90.8948 50.4598C90.8948 50.7212 90.6824 50.9336 90.421 50.9336Z" fill="#4B73F8"/>
<path id="Vector_7" d="M90.421 55.4683C90.1591 55.4683 89.9473 55.2559 89.9473 54.9945C89.9473 54.7332 90.1597 54.5208 90.421 54.5208C90.6824 54.5208 90.8948 54.7332 90.8948 54.9945C90.8948 55.2559 90.6824 55.4683 90.421 55.4683Z" fill="#4B73F8"/>
<path id="Vector_8" d="M90.421 60.0036C90.1591 60.0036 89.9473 59.7912 89.9473 59.5299C89.9473 59.2685 90.1597 59.0561 90.421 59.0561C90.6824 59.0561 90.8948 59.2685 90.8948 59.5299C90.8948 59.7912 90.6824 60.0036 90.421 60.0036Z" fill="#4B73F8"/>
<path id="Vector_9" d="M90.421 64.539C90.1591 64.539 89.9473 64.3266 89.9473 64.0652C89.9473 63.8038 90.1597 63.5914 90.421 63.5914C90.6824 63.5914 90.8948 63.8038 90.8948 64.0652C90.8948 64.3266 90.6824 64.539 90.421 64.539Z" fill="#4B73F8"/>
<path id="Vector_10" d="M90.421 69.0743C90.1591 69.0743 89.9473 68.8619 89.9473 68.6005C89.9473 68.3392 90.1597 68.1268 90.421 68.1268C90.6824 68.1268 90.8948 68.3392 90.8948 68.6005C90.8948 68.8619 90.6824 69.0743 90.421 69.0743Z" fill="#4B73F8"/>
</g>
<g id="Group_3">
<path id="Vector_11" d="M82.6036 28.2581C82.3417 28.2581 82.1299 28.0457 82.1299 27.7843C82.1299 27.5229 82.3423 27.3105 82.6036 27.3105C82.865 27.3105 83.0774 27.5229 83.0774 27.7843C83.0774 28.0457 82.865 28.2581 82.6036 28.2581Z" fill="#4B73F8"/>
<path id="Vector_12" d="M82.6036 32.7928C82.3417 32.7928 82.1299 32.5804 82.1299 32.319C82.1299 32.0577 82.3423 31.8453 82.6036 31.8453C82.865 31.8453 83.0774 32.0577 83.0774 32.319C83.0774 32.5804 82.865 32.7928 82.6036 32.7928Z" fill="#4B73F8"/>
<path id="Vector_13" d="M82.6036 37.3282C82.3417 37.3282 82.1299 37.1158 82.1299 36.8544C82.1299 36.593 82.3423 36.3806 82.6036 36.3806C82.865 36.3806 83.0774 36.593 83.0774 36.8544C83.0774 37.1158 82.865 37.3282 82.6036 37.3282Z" fill="#4B73F8"/>
<path id="Vector_14" d="M82.6036 41.8635C82.3417 41.8635 82.1299 41.6511 82.1299 41.3897C82.1299 41.1284 82.3423 40.916 82.6036 40.916C82.865 40.916 83.0774 41.1284 83.0774 41.3897C83.0774 41.6511 82.865 41.8635 82.6036 41.8635Z" fill="#4B73F8"/>
<path id="Vector_15" d="M82.6036 46.3982C82.3417 46.3982 82.1299 46.1858 82.1299 45.9244C82.1299 45.6631 82.3423 45.4507 82.6036 45.4507C82.865 45.4507 83.0774 45.6631 83.0774 45.9244C83.0774 46.1858 82.865 46.3982 82.6036 46.3982Z" fill="#4B73F8"/>
<path id="Vector_16" d="M82.6036 50.9336C82.3417 50.9336 82.1299 50.7212 82.1299 50.4598C82.1299 50.1984 82.3423 49.986 82.6036 49.986C82.865 49.986 83.0774 50.1984 83.0774 50.4598C83.0774 50.7212 82.865 50.9336 82.6036 50.9336Z" fill="#4B73F8"/>
<path id="Vector_17" d="M82.6036 55.4683C82.3417 55.4683 82.1299 55.2559 82.1299 54.9945C82.1299 54.7332 82.3423 54.5208 82.6036 54.5208C82.865 54.5208 83.0774 54.7332 83.0774 54.9945C83.0774 55.2559 82.865 55.4683 82.6036 55.4683Z" fill="#4B73F8"/>
<path id="Vector_18" d="M82.6036 60.0036C82.3417 60.0036 82.1299 59.7912 82.1299 59.5299C82.1299 59.2685 82.3423 59.0561 82.6036 59.0561C82.865 59.0561 83.0774 59.2685 83.0774 59.5299C83.0774 59.7912 82.865 60.0036 82.6036 60.0036Z" fill="#4B73F8"/>
<path id="Vector_19" d="M82.6036 64.539C82.3417 64.539 82.1299 64.3266 82.1299 64.0652C82.1299 63.8038 82.3423 63.5914 82.6036 63.5914C82.865 63.5914 83.0774 63.8038 83.0774 64.0652C83.0774 64.3266 82.865 64.539 82.6036 64.539Z" fill="#4B73F8"/>
<path id="Vector_20" d="M82.6036 69.0743C82.3417 69.0743 82.1299 68.8619 82.1299 68.6005C82.1299 68.3392 82.3423 68.1268 82.6036 68.1268C82.865 68.1268 83.0774 68.3392 83.0774 68.6005C83.0774 68.8619 82.865 69.0743 82.6036 69.0743Z" fill="#4B73F8"/>
</g>
<g id="Group_4">
<path id="Vector_21" d="M74.786 28.2581C74.5241 28.2581 74.3123 28.0457 74.3123 27.7843C74.3123 27.5229 74.5247 27.3105 74.786 27.3105C75.0474 27.3105 75.2598 27.5229 75.2598 27.7843C75.2598 28.0457 75.0474 28.2581 74.786 28.2581Z" fill="#4B73F8"/>
<path id="Vector_22" d="M74.786 32.7928C74.5241 32.7928 74.3123 32.5804 74.3123 32.319C74.3123 32.0577 74.5247 31.8453 74.786 31.8453C75.0474 31.8453 75.2598 32.0577 75.2598 32.319C75.2598 32.5804 75.0474 32.7928 74.786 32.7928Z" fill="#4B73F8"/>
<path id="Vector_23" d="M74.786 37.3282C74.5241 37.3282 74.3123 37.1158 74.3123 36.8544C74.3123 36.593 74.5247 36.3806 74.786 36.3806C75.0474 36.3806 75.2598 36.593 75.2598 36.8544C75.2598 37.1158 75.0474 37.3282 74.786 37.3282Z" fill="#4B73F8"/>
<path id="Vector_24" d="M74.786 41.8635C74.5241 41.8635 74.3123 41.6511 74.3123 41.3897C74.3123 41.1284 74.5247 40.916 74.786 40.916C75.0474 40.916 75.2598 41.1284 75.2598 41.3897C75.2598 41.6511 75.0474 41.8635 74.786 41.8635Z" fill="#4B73F8"/>
<path id="Vector_25" d="M74.786 46.3982C74.5241 46.3982 74.3123 46.1858 74.3123 45.9244C74.3123 45.6631 74.5247 45.4507 74.786 45.4507C75.0474 45.4507 75.2598 45.6631 75.2598 45.9244C75.2598 46.1858 75.0474 46.3982 74.786 46.3982Z" fill="#4B73F8"/>
<path id="Vector_26" d="M74.786 50.9336C74.5241 50.9336 74.3123 50.7212 74.3123 50.4598C74.3123 50.1984 74.5247 49.986 74.786 49.986C75.0474 49.986 75.2598 50.1984 75.2598 50.4598C75.2598 50.7212 75.0474 50.9336 74.786 50.9336Z" fill="#4B73F8"/>
<path id="Vector_27" d="M74.786 55.4683C74.5241 55.4683 74.3123 55.2559 74.3123 54.9945C74.3123 54.7332 74.5247 54.5208 74.786 54.5208C75.0474 54.5208 75.2598 54.7332 75.2598 54.9945C75.2598 55.2559 75.0474 55.4683 74.786 55.4683Z" fill="#4B73F8"/>
<path id="Vector_28" d="M74.786 60.0036C74.5241 60.0036 74.3123 59.7912 74.3123 59.5299C74.3123 59.2685 74.5247 59.0561 74.786 59.0561C75.0474 59.0561 75.2598 59.2685 75.2598 59.5299C75.2598 59.7912 75.0474 60.0036 74.786 60.0036Z" fill="#4B73F8"/>
<path id="Vector_29" d="M74.786 64.539C74.5241 64.539 74.3123 64.3266 74.3123 64.0652C74.3123 63.8038 74.5247 63.5914 74.786 63.5914C75.0474 63.5914 75.2598 63.8038 75.2598 64.0652C75.2598 64.3266 75.0474 64.539 74.786 64.539Z" fill="#4B73F8"/>
<path id="Vector_30" d="M74.786 69.0743C74.5241 69.0743 74.3123 68.8619 74.3123 68.6005C74.3123 68.3392 74.5247 68.1268 74.786 68.1268C75.0474 68.1268 75.2598 68.3392 75.2598 68.6005C75.2598 68.8619 75.0474 69.0743 74.786 69.0743Z" fill="#4B73F8"/>
</g>
<g id="Group_5">
<path id="Vector_31" d="M66.9691 28.2581C66.7072 28.2581 66.4954 28.0457 66.4954 27.7843C66.4954 27.5229 66.7078 27.3105 66.9691 27.3105C67.2305 27.3105 67.4429 27.5229 67.4429 27.7843C67.4429 28.0457 67.2305 28.2581 66.9691 28.2581Z" fill="#4B73F8"/>
<path id="Vector_32" d="M66.9691 32.7928C66.7072 32.7928 66.4954 32.5804 66.4954 32.319C66.4954 32.0577 66.7078 31.8453 66.9691 31.8453C67.2305 31.8453 67.4429 32.0577 67.4429 32.319C67.4429 32.5804 67.2305 32.7928 66.9691 32.7928Z" fill="#4B73F8"/>
<path id="Vector_33" d="M66.9691 37.3282C66.7072 37.3282 66.4954 37.1158 66.4954 36.8544C66.4954 36.593 66.7078 36.3806 66.9691 36.3806C67.2305 36.3806 67.4429 36.593 67.4429 36.8544C67.4429 37.1158 67.2305 37.3282 66.9691 37.3282Z" fill="#4B73F8"/>
<path id="Vector_34" d="M66.9691 41.8635C66.7072 41.8635 66.4954 41.6511 66.4954 41.3897C66.4954 41.1284 66.7078 40.916 66.9691 40.916C67.2305 40.916 67.4429 41.1284 67.4429 41.3897C67.4429 41.6511 67.2305 41.8635 66.9691 41.8635Z" fill="#4B73F8"/>
<path id="Vector_35" d="M66.9691 46.3982C66.7072 46.3982 66.4954 46.1858 66.4954 45.9244C66.4954 45.6631 66.7078 45.4507 66.9691 45.4507C67.2305 45.4507 67.4429 45.6631 67.4429 45.9244C67.4429 46.1858 67.2305 46.3982 66.9691 46.3982Z" fill="#4B73F8"/>
<path id="Vector_36" d="M66.9691 50.9336C66.7072 50.9336 66.4954 50.7212 66.4954 50.4598C66.4954 50.1984 66.7078 49.986 66.9691 49.986C67.2305 49.986 67.4429 50.1984 67.4429 50.4598C67.4429 50.7212 67.2305 50.9336 66.9691 50.9336Z" fill="#4B73F8"/>
<path id="Vector_37" d="M66.9691 55.4683C66.7072 55.4683 66.4954 55.2559 66.4954 54.9945C66.4954 54.7332 66.7078 54.5208 66.9691 54.5208C67.2305 54.5208 67.4429 54.7332 67.4429 54.9945C67.4429 55.2559 67.2305 55.4683 66.9691 55.4683Z" fill="#4B73F8"/>
<path id="Vector_38" d="M66.9691 60.0036C66.7072 60.0036 66.4954 59.7912 66.4954 59.5299C66.4954 59.2685 66.7078 59.0561 66.9691 59.0561C67.2305 59.0561 67.4429 59.2685 67.4429 59.5299C67.4429 59.7912 67.2305 60.0036 66.9691 60.0036Z" fill="#4B73F8"/>
<path id="Vector_39" d="M66.9691 64.539C66.7072 64.539 66.4954 64.3266 66.4954 64.0652C66.4954 63.8038 66.7078 63.5914 66.9691 63.5914C67.2305 63.5914 67.4429 63.8038 67.4429 64.0652C67.4429 64.3266 67.2305 64.539 66.9691 64.539Z" fill="#4B73F8"/>
<path id="Vector_40" d="M66.9691 69.0743C66.7072 69.0743 66.4954 68.8619 66.4954 68.6005C66.4954 68.3392 66.7078 68.1268 66.9691 68.1268C67.2305 68.1268 67.4429 68.3392 67.4429 68.6005C67.4429 68.8619 67.2305 69.0743 66.9691 69.0743Z" fill="#4B73F8"/>
</g>
<g id="Group_6">
<path id="Vector_41" d="M59.1517 28.2575C59.4134 28.2575 59.6255 28.0454 59.6255 27.7837C59.6255 27.5221 59.4134 27.3099 59.1517 27.3099C58.8901 27.3099 58.678 27.5221 58.678 27.7837C58.678 28.0454 58.8901 28.2575 59.1517 28.2575Z" fill="#4B73F8"/>
<path id="Vector_42" d="M59.1517 32.7928C58.8898 32.7928 58.678 32.5804 58.678 32.319C58.678 32.0577 58.8904 31.8453 59.1517 31.8453C59.4131 31.8453 59.6255 32.0577 59.6255 32.319C59.6255 32.5804 59.4131 32.7928 59.1517 32.7928Z" fill="#4B73F8"/>
<path id="Vector_43" d="M59.1517 37.3282C59.4134 37.3282 59.6255 37.116 59.6255 36.8544C59.6255 36.5927 59.4134 36.3806 59.1517 36.3806C58.8901 36.3806 58.678 36.5927 58.678 36.8544C58.678 37.116 58.8901 37.3282 59.1517 37.3282Z" fill="#4B73F8"/>
<path id="Vector_44" d="M59.1517 41.8635C58.8898 41.8635 58.678 41.6511 58.678 41.3897C58.678 41.1284 58.8904 40.916 59.1517 40.916C59.4131 40.916 59.6255 41.1284 59.6255 41.3897C59.6255 41.6511 59.4131 41.8635 59.1517 41.8635Z" fill="#4B73F8"/>
<path id="Vector_45" d="M59.1517 46.3982C59.4134 46.3982 59.6255 46.1861 59.6255 45.9244C59.6255 45.6628 59.4134 45.4507 59.1517 45.4507C58.8901 45.4507 58.678 45.6628 58.678 45.9244C58.678 46.1861 58.8901 46.3982 59.1517 46.3982Z" fill="#4B73F8"/>
<path id="Vector_46" d="M59.1517 50.9336C58.8898 50.9336 58.678 50.7212 58.678 50.4598C58.678 50.1984 58.8904 49.986 59.1517 49.986C59.4131 49.986 59.6255 50.1984 59.6255 50.4598C59.6255 50.7212 59.4131 50.9336 59.1517 50.9336Z" fill="#4B73F8"/>
<path id="Vector_47" d="M59.1517 55.4683C58.8898 55.4683 58.678 55.2559 58.678 54.9945C58.678 54.7332 58.8904 54.5208 59.1517 54.5208C59.4131 54.5208 59.6255 54.7332 59.6255 54.9945C59.6255 55.2559 59.4131 55.4683 59.1517 55.4683Z" fill="#4B73F8"/>
<path id="Vector_48" d="M59.1517 60.0036C59.4134 60.0036 59.6255 59.7915 59.6255 59.5299C59.6255 59.2682 59.4134 59.0561 59.1517 59.0561C58.8901 59.0561 58.678 59.2682 58.678 59.5299C58.678 59.7915 58.8901 60.0036 59.1517 60.0036Z" fill="#4B73F8"/>
<path id="Vector_49" d="M59.1517 64.5389C58.8898 64.5389 58.678 64.3265 58.678 64.0651C58.678 63.8038 58.8904 63.5914 59.1517 63.5914C59.4131 63.5914 59.6255 63.8038 59.6255 64.0651C59.6255 64.3265 59.4131 64.5389 59.1517 64.5389Z" fill="#4B73F8"/>
<path id="Vector_50" d="M59.1517 69.0737C59.4134 69.0737 59.6255 68.8616 59.6255 68.5999C59.6255 68.3383 59.4134 68.1262 59.1517 68.1262C58.8901 68.1262 58.678 68.3383 58.678 68.5999C58.678 68.8616 58.8901 69.0737 59.1517 69.0737Z" fill="#4B73F8"/>
</g>
<g id="Group_7">
<path id="Vector_51" d="M51.3341 28.2575C51.5958 28.2575 51.8079 28.0454 51.8079 27.7837C51.8079 27.5221 51.5958 27.3099 51.3341 27.3099C51.0725 27.3099 50.8604 27.5221 50.8604 27.7837C50.8604 28.0454 51.0725 28.2575 51.3341 28.2575Z" fill="#4B73F8"/>
<path id="Vector_52" d="M51.3341 32.7928C51.0722 32.7928 50.8604 32.5804 50.8604 32.319C50.8604 32.0577 51.0728 31.8453 51.3341 31.8453C51.5955 31.8453 51.8079 32.0577 51.8079 32.319C51.8079 32.5804 51.5955 32.7928 51.3341 32.7928Z" fill="#4B73F8"/>
<path id="Vector_53" d="M51.3341 37.3282C51.5958 37.3282 51.8079 37.116 51.8079 36.8544C51.8079 36.5927 51.5958 36.3806 51.3341 36.3806C51.0725 36.3806 50.8604 36.5927 50.8604 36.8544C50.8604 37.116 51.0725 37.3282 51.3341 37.3282Z" fill="#4B73F8"/>
<path id="Vector_54" d="M51.3341 41.8635C51.0722 41.8635 50.8604 41.6511 50.8604 41.3897C50.8604 41.1284 51.0728 40.916 51.3341 40.916C51.5955 40.916 51.8079 41.1284 51.8079 41.3897C51.8079 41.6511 51.5955 41.8635 51.3341 41.8635Z" fill="#4B73F8"/>
<path id="Vector_55" d="M51.3341 46.3982C51.5958 46.3982 51.8079 46.1861 51.8079 45.9244C51.8079 45.6628 51.5958 45.4507 51.3341 45.4507C51.0725 45.4507 50.8604 45.6628 50.8604 45.9244C50.8604 46.1861 51.0725 46.3982 51.3341 46.3982Z" fill="#4B73F8"/>
<path id="Vector_56" d="M51.3341 50.9336C51.0722 50.9336 50.8604 50.7212 50.8604 50.4598C50.8604 50.1984 51.0728 49.986 51.3341 49.986C51.5955 49.986 51.8079 50.1984 51.8079 50.4598C51.8079 50.7212 51.5955 50.9336 51.3341 50.9336Z" fill="#4B73F8"/>
<path id="Vector_57" d="M51.3341 55.4683C51.0722 55.4683 50.8604 55.2559 50.8604 54.9945C50.8604 54.7332 51.0728 54.5208 51.3341 54.5208C51.5955 54.5208 51.8079 54.7332 51.8079 54.9945C51.8079 55.2559 51.5955 55.4683 51.3341 55.4683Z" fill="#4B73F8"/>
<path id="Vector_58" d="M51.3341 60.0036C51.5958 60.0036 51.8079 59.7915 51.8079 59.5299C51.8079 59.2682 51.5958 59.0561 51.3341 59.0561C51.0725 59.0561 50.8604 59.2682 50.8604 59.5299C50.8604 59.7915 51.0725 60.0036 51.3341 60.0036Z" fill="#4B73F8"/>
<path id="Vector_59" d="M51.3341 64.5389C51.0722 64.5389 50.8604 64.3265 50.8604 64.0651C50.8604 63.8038 51.0728 63.5914 51.3341 63.5914C51.5955 63.5914 51.8079 63.8038 51.8079 64.0651C51.8079 64.3265 51.5955 64.5389 51.3341 64.5389Z" fill="#4B73F8"/>
<path id="Vector_60" d="M51.3341 69.0737C51.5958 69.0737 51.8079 68.8616 51.8079 68.5999C51.8079 68.3383 51.5958 68.1262 51.3341 68.1262C51.0725 68.1262 50.8604 68.3383 50.8604 68.5999C50.8604 68.8616 51.0725 69.0737 51.3341 69.0737Z" fill="#4B73F8"/>
</g>
<g id="Group_8">
<path id="Vector_61" d="M43.5172 28.2575C43.7789 28.2575 43.991 28.0454 43.991 27.7837C43.991 27.5221 43.7789 27.3099 43.5172 27.3099C43.2556 27.3099 43.0435 27.5221 43.0435 27.7837C43.0435 28.0454 43.2556 28.2575 43.5172 28.2575Z" fill="#4B73F8"/>
<path id="Vector_62" d="M43.5172 32.7928C43.2553 32.7928 43.0435 32.5804 43.0435 32.319C43.0435 32.0577 43.2559 31.8453 43.5172 31.8453C43.7786 31.8453 43.991 32.0577 43.991 32.319C43.991 32.5804 43.7786 32.7928 43.5172 32.7928Z" fill="#4B73F8"/>
<path id="Vector_63" d="M43.5172 37.3282C43.7789 37.3282 43.991 37.116 43.991 36.8544C43.991 36.5927 43.7789 36.3806 43.5172 36.3806C43.2556 36.3806 43.0435 36.5927 43.0435 36.8544C43.0435 37.116 43.2556 37.3282 43.5172 37.3282Z" fill="#4B73F8"/>
<path id="Vector_64" d="M43.5172 41.8635C43.2553 41.8635 43.0435 41.6511 43.0435 41.3897C43.0435 41.1284 43.2559 40.916 43.5172 40.916C43.7786 40.916 43.991 41.1284 43.991 41.3897C43.991 41.6511 43.7786 41.8635 43.5172 41.8635Z" fill="#4B73F8"/>
<path id="Vector_65" d="M43.5172 46.3982C43.7789 46.3982 43.991 46.1861 43.991 45.9244C43.991 45.6628 43.7789 45.4507 43.5172 45.4507C43.2556 45.4507 43.0435 45.6628 43.0435 45.9244C43.0435 46.1861 43.2556 46.3982 43.5172 46.3982Z" fill="#4B73F8"/>
<path id="Vector_66" d="M43.5172 50.9336C43.2553 50.9336 43.0435 50.7212 43.0435 50.4598C43.0435 50.1984 43.2559 49.986 43.5172 49.986C43.7786 49.986 43.991 50.1984 43.991 50.4598C43.991 50.7212 43.7786 50.9336 43.5172 50.9336Z" fill="#4B73F8"/>
<path id="Vector_67" d="M43.5172 55.4683C43.2553 55.4683 43.0435 55.2559 43.0435 54.9945C43.0435 54.7332 43.2559 54.5208 43.5172 54.5208C43.7786 54.5208 43.991 54.7332 43.991 54.9945C43.991 55.2559 43.7786 55.4683 43.5172 55.4683Z" fill="#4B73F8"/>
<path id="Vector_68" d="M43.5172 60.0036C43.7789 60.0036 43.991 59.7915 43.991 59.5299C43.991 59.2682 43.7789 59.0561 43.5172 59.0561C43.2556 59.0561 43.0435 59.2682 43.0435 59.5299C43.0435 59.7915 43.2556 60.0036 43.5172 60.0036Z" fill="#4B73F8"/>
<path id="Vector_69" d="M43.5172 64.5389C43.2553 64.5389 43.0435 64.3265 43.0435 64.0651C43.0435 63.8038 43.2559 63.5914 43.5172 63.5914C43.7786 63.5914 43.991 63.8038 43.991 64.0651C43.991 64.3265 43.7786 64.5389 43.5172 64.5389Z" fill="#4B73F8"/>
<path id="Vector_70" d="M43.5172 69.0737C43.7789 69.0737 43.991 68.8616 43.991 68.5999C43.991 68.3383 43.7789 68.1262 43.5172 68.1262C43.2556 68.1262 43.0435 68.3383 43.0435 68.5999C43.0435 68.8616 43.2556 69.0737 43.5172 69.0737Z" fill="#4B73F8"/>
</g>
<g id="Group_9">
<path id="Vector_71" d="M35.6996 28.2575C35.9613 28.2575 36.1734 28.0454 36.1734 27.7837C36.1734 27.5221 35.9613 27.3099 35.6996 27.3099C35.4379 27.3099 35.2258 27.5221 35.2258 27.7837C35.2258 28.0454 35.4379 28.2575 35.6996 28.2575Z" fill="#4B73F8"/>
<path id="Vector_72" d="M35.6996 32.7928C35.4376 32.7928 35.2258 32.5804 35.2258 32.319C35.2258 32.0577 35.4382 31.8453 35.6996 31.8453C35.961 31.8453 36.1734 32.0577 36.1734 32.319C36.1734 32.5804 35.961 32.7928 35.6996 32.7928Z" fill="#4B73F8"/>
<path id="Vector_73" d="M35.6996 37.3282C35.9613 37.3282 36.1734 37.116 36.1734 36.8544C36.1734 36.5927 35.9613 36.3806 35.6996 36.3806C35.4379 36.3806 35.2258 36.5927 35.2258 36.8544C35.2258 37.116 35.4379 37.3282 35.6996 37.3282Z" fill="#4B73F8"/>
<path id="Vector_74" d="M35.6996 41.8635C35.4376 41.8635 35.2258 41.6511 35.2258 41.3897C35.2258 41.1284 35.4382 40.916 35.6996 40.916C35.961 40.916 36.1734 41.1284 36.1734 41.3897C36.1734 41.6511 35.961 41.8635 35.6996 41.8635Z" fill="#4B73F8"/>
<path id="Vector_75" d="M35.6996 46.3982C35.9613 46.3982 36.1734 46.1861 36.1734 45.9244C36.1734 45.6628 35.9613 45.4507 35.6996 45.4507C35.4379 45.4507 35.2258 45.6628 35.2258 45.9244C35.2258 46.1861 35.4379 46.3982 35.6996 46.3982Z" fill="#4B73F8"/>
<path id="Vector_76" d="M35.6996 50.9336C35.4376 50.9336 35.2258 50.7212 35.2258 50.4598C35.2258 50.1984 35.4382 49.986 35.6996 49.986C35.961 49.986 36.1734 50.1984 36.1734 50.4598C36.1734 50.7212 35.961 50.9336 35.6996 50.9336Z" fill="#4B73F8"/>
<path id="Vector_77" d="M35.6996 55.4683C35.4376 55.4683 35.2258 55.2559 35.2258 54.9945C35.2258 54.7332 35.4382 54.5208 35.6996 54.5208C35.961 54.5208 36.1734 54.7332 36.1734 54.9945C36.1734 55.2559 35.961 55.4683 35.6996 55.4683Z" fill="#4B73F8"/>
<path id="Vector_78" d="M35.6996 60.0036C35.9613 60.0036 36.1734 59.7915 36.1734 59.5299C36.1734 59.2682 35.9613 59.0561 35.6996 59.0561C35.4379 59.0561 35.2258 59.2682 35.2258 59.5299C35.2258 59.7915 35.4379 60.0036 35.6996 60.0036Z" fill="#4B73F8"/>
<path id="Vector_79" d="M35.6996 64.5389C35.4376 64.5389 35.2258 64.3265 35.2258 64.0651C35.2258 63.8038 35.4382 63.5914 35.6996 63.5914C35.961 63.5914 36.1734 63.8038 36.1734 64.0651C36.1734 64.3265 35.961 64.5389 35.6996 64.5389Z" fill="#4B73F8"/>
<path id="Vector_80" d="M35.6996 69.0737C35.9613 69.0737 36.1734 68.8616 36.1734 68.5999C36.1734 68.3383 35.9613 68.1262 35.6996 68.1262C35.4379 68.1262 35.2258 68.3383 35.2258 68.5999C35.2258 68.8616 35.4379 69.0737 35.6996 69.0737Z" fill="#4B73F8"/>
</g>
<g id="Group_10">
<path id="Vector_81" d="M27.8822 28.2575C28.1439 28.2575 28.356 28.0454 28.356 27.7837C28.356 27.5221 28.1439 27.3099 27.8822 27.3099C27.6206 27.3099 27.4084 27.5221 27.4084 27.7837C27.4084 28.0454 27.6206 28.2575 27.8822 28.2575Z" fill="#4B73F8"/>
<path id="Vector_82" d="M27.8822 32.7928C27.6203 32.7928 27.4084 32.5804 27.4084 32.319C27.4084 32.0577 27.6208 31.8453 27.8822 31.8453C28.1436 31.8453 28.356 32.0577 28.356 32.319C28.356 32.5804 28.1436 32.7928 27.8822 32.7928Z" fill="#4B73F8"/>
<path id="Vector_83" d="M27.8822 37.3282C28.1439 37.3282 28.356 37.116 28.356 36.8544C28.356 36.5927 28.1439 36.3806 27.8822 36.3806C27.6206 36.3806 27.4084 36.5927 27.4084 36.8544C27.4084 37.116 27.6206 37.3282 27.8822 37.3282Z" fill="#4B73F8"/>
<path id="Vector_84" d="M27.8822 41.8635C27.6203 41.8635 27.4084 41.6511 27.4084 41.3897C27.4084 41.1284 27.6208 40.916 27.8822 40.916C28.1436 40.916 28.356 41.1284 28.356 41.3897C28.356 41.6511 28.1436 41.8635 27.8822 41.8635Z" fill="#4B73F8"/>
<path id="Vector_85" d="M27.8822 46.3982C28.1439 46.3982 28.356 46.1861 28.356 45.9244C28.356 45.6628 28.1439 45.4507 27.8822 45.4507C27.6206 45.4507 27.4084 45.6628 27.4084 45.9244C27.4084 46.1861 27.6206 46.3982 27.8822 46.3982Z" fill="#4B73F8"/>
<path id="Vector_86" d="M27.8822 50.9336C27.6203 50.9336 27.4084 50.7212 27.4084 50.4598C27.4084 50.1984 27.6208 49.986 27.8822 49.986C28.1436 49.986 28.356 50.1984 28.356 50.4598C28.356 50.7212 28.1436 50.9336 27.8822 50.9336Z" fill="#4B73F8"/>
<path id="Vector_87" d="M27.8822 55.4683C27.6203 55.4683 27.4084 55.2559 27.4084 54.9945C27.4084 54.7332 27.6208 54.5208 27.8822 54.5208C28.1436 54.5208 28.356 54.7332 28.356 54.9945C28.356 55.2559 28.1436 55.4683 27.8822 55.4683Z" fill="#4B73F8"/>
<path id="Vector_88" d="M27.8822 60.0036C28.1439 60.0036 28.356 59.7915 28.356 59.5299C28.356 59.2682 28.1439 59.0561 27.8822 59.0561C27.6206 59.0561 27.4084 59.2682 27.4084 59.5299C27.4084 59.7915 27.6206 60.0036 27.8822 60.0036Z" fill="#4B73F8"/>
<path id="Vector_89" d="M27.8822 64.5389C27.6203 64.5389 27.4084 64.3265 27.4084 64.0651C27.4084 63.8038 27.6208 63.5914 27.8822 63.5914C28.1436 63.5914 28.356 63.8038 28.356 64.0651C28.356 64.3265 28.1436 64.5389 27.8822 64.5389Z" fill="#4B73F8"/>
<path id="Vector_90" d="M27.8822 69.0737C28.1439 69.0737 28.356 68.8616 28.356 68.5999C28.356 68.3383 28.1439 68.1262 27.8822 68.1262C27.6206 68.1262 27.4084 68.3383 27.4084 68.5999C27.4084 68.8616 27.6206 69.0737 27.8822 69.0737Z" fill="#4B73F8"/>
</g>
</g>
<path id="Vector_91" opacity="0.05" d="M69.4288 55.1497C77.6416 65.523 100.397 77.1272 115 69.8194C148.304 53.1531 159.368 105.624 136.186 119.471C128.438 124.1 120.225 127.238 111.97 128.824C94.1197 132.253 52.9649 153.182 41.7383 133.474C34.4088 120.607 46.8047 102.207 34.7374 84.3517C10.9368 49.1334 50.396 31.1101 69.4288 55.1497Z" fill="#4B73F8"/>
<g id="Group_11" opacity="0.6">
<path id="Vector_92" opacity="0.8" d="M124.566 47.521C124.566 46.364 123.627 45.4259 122.47 45.4259C123.627 45.4259 124.566 44.4878 124.566 43.3308C124.566 44.4878 125.504 45.4259 126.661 45.4259C125.504 45.4259 124.566 46.364 124.566 47.521Z" fill="#4B73F8"/>
<path id="Vector_93" opacity="0.8" d="M32.0282 96.3789C32.0282 94.0891 30.172 92.2335 27.8828 92.2335C30.1726 92.2335 32.0282 90.3774 32.0282 88.0882C32.0282 90.378 33.8843 92.2335 36.1735 92.2335C33.8837 92.2335 32.0282 94.0897 32.0282 96.3789Z" fill="#4B73F8"/>
<path id="Vector_94" opacity="0.6" d="M134.13 29.4806C134.13 28.6091 133.424 27.9029 132.552 27.9029C133.424 27.9029 134.13 27.1967 134.13 26.3253C134.13 27.1967 134.836 27.9029 135.708 27.9029C134.836 27.9029 134.13 28.6091 134.13 29.4806Z" fill="#4B73F8"/>
<path id="Vector_95" opacity="0.6" d="M63.6297 148.033C63.6297 147.162 62.9234 146.456 62.052 146.456C62.9234 146.456 63.6297 145.749 63.6297 144.878C63.6297 145.749 64.3359 146.456 65.2073 146.456C64.3359 146.456 63.6297 147.162 63.6297 148.033Z" fill="#4B73F8"/>
<path id="Vector_96" opacity="0.6" d="M78.7572 32.2565C78.7572 30.3632 77.2227 28.8286 75.3293 28.8286C77.2227 28.8286 78.7572 27.294 78.7572 25.4007C78.7572 27.294 80.2918 28.8286 82.1851 28.8286C80.2918 28.8286 78.7572 30.3632 78.7572 32.2565Z" fill="#4B73F8"/>
<path id="Vector_97" opacity="0.6" d="M139.135 139.18C139.135 137.287 137.6 135.752 135.707 135.752C137.6 135.752 139.135 134.217 139.135 132.324C139.135 134.217 140.67 135.752 142.563 135.752C140.67 135.752 139.135 137.287 139.135 139.18Z" fill="#4B73F8"/>
</g>
<g id="Group_12">
<path id="Vector_98" opacity="0.2" d="M143.328 127.441C144.701 127.441 145.813 126.329 145.813 124.956C145.813 123.584 144.701 122.471 143.328 122.471C141.956 122.471 140.843 123.584 140.843 124.956C140.843 126.329 141.956 127.441 143.328 127.441Z" fill="#FF0000"/>
<path id="Vector_99" opacity="0.2" d="M122.26 59.1352C122.81 59.1352 123.256 58.6893 123.256 58.1392C123.256 57.5892 122.81 57.1433 122.26 57.1433C121.71 57.1433 121.264 57.5892 121.264 58.1392C121.264 58.6893 121.71 59.1352 122.26 59.1352Z" fill="#FF0000"/>
<path id="Vector_100" opacity="0.6" d="M38.3276 133.235C39.2807 133.235 40.0533 132.462 40.0533 131.509C40.0533 130.556 39.2807 129.784 38.3276 129.784C37.3745 129.784 36.6018 130.556 36.6018 131.509C36.6018 132.462 37.3745 133.235 38.3276 133.235Z" fill="#FF0000"/>
<path id="Vector_101" opacity="0.4" d="M39.6563 45.1085C37.1465 45.1085 35.1116 43.0736 35.1116 40.5637C35.1116 38.0538 37.1465 36.0189 39.6563 36.0189C42.1662 36.0189 44.2011 38.0538 44.2011 40.5637C44.2011 43.0736 42.1662 45.1085 39.6563 45.1085ZM39.6563 37.3506C37.8816 37.3506 36.4432 38.789 36.4432 40.5637C36.4432 42.3384 37.8816 43.7768 39.6563 43.7768C41.4311 43.7768 42.8695 42.3384 42.8695 40.5637C42.8695 38.789 41.4311 37.3506 39.6563 37.3506Z" fill="#FF0000"/>
<path id="Vector_102" opacity="0.2" d="M44.3345 108.943C45.1048 108.943 45.7292 108.318 45.7292 107.548C45.7292 106.778 45.1048 106.153 44.3345 106.153C43.5642 106.153 42.9397 106.778 42.9397 107.548C42.9397 108.318 43.5642 108.943 44.3345 108.943Z" fill="#FF0000"/>
<path id="Vector_103" opacity="0.2" d="M47.1977 63.0769C47.968 63.0769 48.5925 62.4525 48.5925 61.6822C48.5925 60.9119 47.968 60.2874 47.1977 60.2874C46.4274 60.2874 45.803 60.9119 45.803 61.6822C45.803 62.4525 46.4274 63.0769 47.1977 63.0769Z" fill="#FF0000"/>
</g>
<g id="Group_13">
<path id="Vector_104" opacity="0.4" d="M136.733 148.528H135.728C135.521 148.528 135.354 148.695 135.354 148.901V153.248H131.008C130.801 153.248 130.634 153.415 130.634 153.621V154.626C130.634 154.833 130.801 154.999 131.008 154.999H135.354V159.346C135.354 159.553 135.521 159.719 135.728 159.719H136.733C136.939 159.719 137.106 159.553 137.106 159.346V154.999H141.453C141.659 154.999 141.826 154.833 141.826 154.626V153.621C141.826 153.415 141.659 153.248 141.453 153.248H137.106V148.901C137.106 148.695 136.939 148.528 136.733 148.528Z" fill="#121F4F"/>
<path id="Vector_105" opacity="0.6" d="M136.821 40.0964H136.373C136.281 40.0964 136.207 40.1707 136.207 40.2628V42.1991H134.27C134.178 42.1991 134.104 42.2735 134.104 42.3655V42.8133C134.104 42.9054 134.178 42.9797 134.27 42.9797H136.207V44.9161C136.207 45.0081 136.281 45.0825 136.373 45.0825H136.821C136.913 45.0825 136.987 45.0081 136.987 44.9161V42.9797H138.924C139.016 42.9797 139.09 42.9054 139.09 42.8133V42.3655C139.09 42.2735 139.016 42.1991 138.924 42.1991H136.987V40.2628C136.987 40.1707 136.913 40.0964 136.821 40.0964Z" fill="#121F4F"/>
<path id="Vector_106" opacity="0.2" d="M51.0952 144.92H50.2527C50.0798 144.92 49.9394 145.061 49.9394 145.234V148.878H46.295C46.1221 148.878 45.9817 149.019 45.9817 149.191V150.034C45.9817 150.207 46.1221 150.347 46.295 150.347H49.9394V153.992C49.9394 154.165 50.0798 154.305 50.2527 154.305H51.0952C51.2681 154.305 51.4085 154.165 51.4085 153.992V150.347H55.0529C55.2258 150.347 55.3662 150.207 55.3662 150.034V149.191C55.3662 149.019 55.2258 148.878 55.0529 148.878H51.4085V145.234C51.4085 145.061 51.2681 144.92 51.0952 144.92Z" fill="#121F4F"/>
</g>
<g id="Group_14" opacity="0.2">
<path id="Vector_107" d="M151.124 112.398L144.562 107.771L138.225 112.24L131.887 107.77L125.548 112.239L119.21 107.77L112.645 112.398L111.571 110.874L119.21 105.489L125.548 109.958L131.887 105.489L138.225 109.958L144.562 105.488L152.198 110.875L151.124 112.398Z" fill="#4B73F8"/>
</g>
<g id="Group_15">
<g id="Group_16">
<g id="Group_17">
<path id="Vector_108" d="M102.244 67.571C110.391 67.571 116.995 60.9666 116.995 52.8198C116.995 44.6729 110.391 38.0686 102.244 38.0686C94.0972 38.0686 87.4929 44.6729 87.4929 52.8198C87.4929 60.9666 94.0972 67.571 102.244 67.571Z" fill="#4B73F8"/>
<path id="Vector_109" opacity="0.3" d="M101.502 65.6429C96.3441 65.6429 91.7775 63.1194 88.9614 59.2426C91.3492 64.1714 96.3996 67.571 102.244 67.571C110.39 67.571 116.995 60.9665 116.995 52.8198C116.995 52.3738 116.972 51.9336 116.933 51.4976C116.25 59.4225 109.604 65.6429 101.502 65.6429Z" fill="#1A1A1A"/>
<path id="Vector_110" d="M103.13 60.8396H101.358C100.994 60.8396 100.7 60.5446 100.7 60.1812V54.365H94.8833C94.5193 54.365 94.2249 54.07 94.2249 53.7065V51.9342C94.2249 51.5702 94.5199 51.2757 94.8833 51.2757H100.7V45.4595C100.7 45.0955 100.995 44.8011 101.358 44.8011H103.13C103.494 44.8011 103.789 45.0961 103.789 45.4595V51.2757H109.605C109.969 51.2757 110.263 51.5707 110.263 51.9342V53.7065C110.263 54.0706 109.968 54.365 109.605 54.365H103.789V60.1812C103.789 60.5452 103.494 60.8396 103.13 60.8396Z" fill="white"/>
</g>
<g id="Group_18">
<path id="Vector_111" d="M90.8619 88.9691C95.5515 88.9691 99.3532 85.1674 99.3532 80.4778C99.3532 75.7882 95.5515 71.9865 90.8619 71.9865C86.1723 71.9865 82.3706 75.7882 82.3706 80.4778C82.3706 85.1674 86.1723 88.9691 90.8619 88.9691Z" fill="#4B73F8"/>
<path id="Vector_112" opacity="0.3" d="M90.4352 87.8593C87.4657 87.8593 84.8373 86.4067 83.2166 84.1747C84.5913 87.012 87.4982 88.969 90.8624 88.969C95.5517 88.969 99.3536 85.1677 99.3536 80.4778C99.3536 80.2211 99.3401 79.9674 99.3182 79.7167C98.9247 84.2786 95.0997 87.8593 90.4358 87.8593H90.4352Z" fill="#1A1A1A"/>
<path id="Vector_113" d="M91.3722 85.0946H90.3521C90.1427 85.0946 89.9727 84.9247 89.9727 84.7152V81.3669H86.6245C86.415 81.3669 86.2451 81.197 86.2451 80.9876V79.9675C86.2451 79.758 86.415 79.5881 86.6245 79.5881H89.9727V76.2398C89.9727 76.0304 90.1427 75.8605 90.3521 75.8605H91.3722C91.5817 75.8605 91.7516 76.0304 91.7516 76.2398V79.5881H95.0998C95.3093 79.5881 95.4792 79.758 95.4792 79.9675V80.9876C95.4792 81.197 95.3093 81.3669 95.0998 81.3669H91.7516V84.7152C91.7516 84.9247 91.5817 85.0946 91.3722 85.0946Z" fill="white"/>
</g>
<g id="Group_19">
<path id="Vector_114" d="M72.9389 75.6009C80.0821 75.6009 85.8728 69.8101 85.8728 62.6669C85.8728 55.5236 80.0821 49.7329 72.9389 49.7329C65.7956 49.7329 60.0049 55.5236 60.0049 62.6669C60.0049 69.8101 65.7956 75.6009 72.9389 75.6009Z" fill="#4B73F8"/>
<path id="Vector_115" opacity="0.3" d="M72.2888 73.9106C67.7659 73.9106 63.7621 71.6981 61.293 68.2985C63.3869 72.6202 67.8142 75.6009 72.939 75.6009C80.0821 75.6009 85.873 69.81 85.873 62.6669C85.873 62.2757 85.8523 61.8899 85.8187 61.5076C85.2192 68.456 79.393 73.91 72.2894 73.91L72.2888 73.9106Z" fill="#1A1A1A"/>
<path id="Vector_116" d="M73.716 69.6991H72.1619C71.8427 69.6991 71.5843 69.4407 71.5843 69.1215V64.0216H66.4843C66.1652 64.0216 65.9067 63.7631 65.9067 63.4439V61.8899C65.9067 61.5707 66.1652 61.3123 66.4843 61.3123H71.5843V56.2123C71.5843 55.8931 71.8427 55.6347 72.1619 55.6347H73.716C74.0352 55.6347 74.2936 55.8931 74.2936 56.2123V61.3123H79.3935C79.7127 61.3123 79.9712 61.5707 79.9712 61.8899V63.4439C79.9712 63.7631 79.7127 64.0216 79.3935 64.0216H74.2936V69.1215C74.2936 69.4407 74.0352 69.6991 73.716 69.6991Z" fill="white"/>
</g>
</g>
<g id="Group_20">
<path id="Vector_117" d="M61.0745 115.878H78.0393C78.0393 115.878 79.1881 100.73 75.4487 94.7818C72.3925 89.9213 66.8872 89.0369 62.9672 85.5896C60.7948 83.6791 58.3528 81.4784 56.6064 79.8961C55.2594 78.6748 53.2121 78.6594 51.8469 79.8595L50.8586 80.728C50.2816 81.2354 50.2598 82.1269 50.812 82.6614L60.5346 92.0778L59.521 92.6861L49.5636 83.1387C48.6998 82.3103 48.6214 80.9557 49.3848 80.0335L50.5294 79.0459C51.0032 78.637 51.2758 78.0423 51.2758 77.4169V63.7413C51.2758 61.7347 49.6491 60.1086 47.6431 60.1086H45.9197C45.1079 60.1086 44.4495 60.7671 44.4495 61.5789V83.5305C44.4495 86.6639 45.7097 89.6653 47.9458 91.8595L57.8543 101.582C59.4667 103.164 60.4662 105.268 60.6739 107.518L61.0768 115.878H61.0745Z" fill="#F2BF9C"/>
<path id="Vector_118" opacity="0.2" d="M75.4486 94.7817C73.606 91.8512 70.8725 90.3662 68.1332 88.8929C73.3175 94.315 75.1158 99.2651 75.1158 104.667C75.1158 110.596 70.9734 113.059 64.1524 113.059C59.8124 113.059 61.4951 114.669 63.4267 115.878H78.0387C78.0387 115.878 79.1874 100.73 75.4474 94.7817H75.4486Z" fill="#1A1A1A"/>
</g>
<g id="Group_21">
<path id="Vector_119" d="M115.926 115.878H98.9608C98.9608 115.878 97.8121 100.73 101.552 94.7818C104.608 89.9213 110.113 89.0369 114.033 85.5896C116.205 83.6791 118.647 81.4784 120.394 79.8961C121.741 78.6748 123.788 78.6594 125.153 79.8595L126.142 80.728C126.719 81.2354 126.74 82.1269 126.188 82.6614L116.466 92.0778L117.479 92.6861L127.437 83.1387C128.3 82.3103 128.379 80.9557 127.615 80.0335L126.471 79.0459C125.997 78.637 125.724 78.0423 125.724 77.4169V63.7413C125.724 61.7347 127.351 60.1086 129.357 60.1086H131.08C131.892 60.1086 132.551 60.7671 132.551 61.5789V83.5305C132.551 86.6639 131.29 89.6653 129.054 91.8595L119.146 101.582C117.533 103.164 116.534 105.268 116.326 107.518L115.923 115.878H115.926Z" fill="#F2BF9C"/>
<path id="Vector_120" opacity="0.2" d="M101.552 94.7817C103.394 91.8512 106.128 90.3662 108.867 88.8929C103.683 94.315 101.884 99.2651 101.884 104.667C101.884 110.596 106.027 113.059 112.848 113.059C117.188 113.059 115.505 114.669 113.573 115.878H98.9615C98.9615 115.878 97.8128 100.73 101.553 94.7817H101.552Z" fill="#1A1A1A"/>
</g>
<g id="Group_22">
<path id="Vector_121" d="M117.628 112.596H97.3853C96.7555 112.596 96.2449 113.106 96.2449 113.736V120.626C96.2449 121.255 96.7555 121.766 97.3853 121.766H117.628C118.258 121.766 118.768 121.255 118.768 120.626V113.736C118.768 113.106 118.258 112.596 117.628 112.596Z" fill="#4B73F8"/>
<path id="Vector_122" opacity="0.3" d="M117.628 120.629H97.3853C96.7558 120.629 96.2449 120.118 96.2449 119.489V120.626C96.2449 121.256 96.7558 121.766 97.3853 121.766H117.628C118.257 121.766 118.768 121.255 118.768 120.626V119.489C118.768 120.119 118.257 120.629 117.628 120.629Z" fill="#1A1A1A"/>
<path id="Vector_123" d="M100.629 118.655C101.606 118.655 102.398 117.863 102.398 116.886C102.398 115.908 101.606 115.116 100.629 115.116C99.6513 115.116 98.8591 115.908 98.8591 116.886C98.8591 117.863 99.6513 118.655 100.629 118.655Z" fill="#DBE3FE"/>
</g>
<g id="Group_23">
<path id="Vector_124" d="M79.8276 112.596H59.5853C58.9554 112.596 58.4448 113.106 58.4448 113.736V120.626C58.4448 121.255 58.9554 121.766 59.5853 121.766H79.8276C80.4575 121.766 80.9681 121.255 80.9681 120.626V113.736C80.9681 113.106 80.4575 112.596 79.8276 112.596Z" fill="#4B73F8"/>
<path id="Vector_125" opacity="0.3" d="M79.8281 120.629H59.5858C58.9563 120.629 58.4453 120.118 58.4453 119.489V120.626C58.4453 121.256 58.9563 121.766 59.5858 121.766H79.8281C80.4576 121.766 80.9686 121.255 80.9686 120.626V119.489C80.9686 120.119 80.4576 120.629 79.8281 120.629Z" fill="#1A1A1A"/>
<path id="Vector_126" d="M62.8292 118.655C63.8064 118.655 64.5986 117.863 64.5986 116.886C64.5986 115.908 63.8064 115.116 62.8292 115.116C61.852 115.116 61.0598 115.908 61.0598 116.886C61.0598 117.863 61.852 118.655 62.8292 118.655Z" fill="#DBE3FE"/>
</g>
</g>
</g>
</svg>
