<svg width="36" height="37" viewBox="0 0 36 37" fill="none" xmlns="http://www.w3.org/2000/svg">
<path d="M36 18.5C36 28.4411 27.9411 36.5 18 36.5C8.05888 36.5 0 28.4411 0 18.5C0 8.55888 8.05888 0.5 18 0.5C27.9411 0.5 36 8.55888 36 18.5Z" fill="#4B73F7"/>
<path d="M18.4434 14.75C16.3723 14.75 14.6934 16.4289 14.6934 18.5C14.6934 20.5711 16.3723 22.25 18.4434 22.25C20.5144 22.25 22.1934 20.5711 22.1934 18.5C22.1934 16.4289 20.5144 14.75 18.4434 14.75Z" fill="#F3F4F8"/>
<path fill-rule="evenodd" clip-rule="evenodd" d="M18.4434 7.75C18.8576 7.75 19.1934 8.08579 19.1934 8.5V9.78169C23.4275 10.1411 26.8022 13.5158 27.1617 17.75H28.4434C28.8576 17.75 29.1934 18.0858 29.1934 18.5C29.1934 18.9142 28.8576 19.25 28.4434 19.25H27.1617C26.8022 23.4842 23.4275 26.8589 19.1934 27.2183V28.5C19.1934 28.9142 18.8576 29.25 18.4434 29.25C18.0291 29.25 17.6934 28.9142 17.6934 28.5V27.2183C13.4592 26.8589 10.0845 23.4842 9.72505 19.25H8.44336C8.02915 19.25 7.69336 18.9142 7.69336 18.5C7.69336 18.0858 8.02915 17.75 8.44336 17.75H9.72505C10.0845 13.5158 13.4592 10.1411 17.6934 9.78169V8.5C17.6934 8.08579 18.0291 7.75 18.4434 7.75ZM11.1934 18.5C11.1934 22.5041 14.4393 25.75 18.4434 25.75C22.4474 25.75 25.6934 22.5041 25.6934 18.5C25.6934 14.4959 22.4474 11.25 18.4434 11.25C14.4393 11.25 11.1934 14.4959 11.1934 18.5Z" fill="#F3F4F8"/>
</svg>
