<svg width="24" height="24" viewBox="0 0 24 24" fill="none" xmlns="http://www.w3.org/2000/svg">
<g id="Group">
<path id="Vector" d="M12.5122 7.31969C12.5122 7.62901 12.2615 7.87977 11.9521 7.87977C11.6428 7.87977 11.3921 7.62901 11.3921 7.31969C11.3921 7.01036 11.6428 6.75961 11.9521 6.75961C12.2615 6.75961 12.5122 7.01036 12.5122 7.31969Z" fill="#282C44" stroke="#282C44" stroke-width="0.351486"/>
<path id="Vector_2" d="M12.0483 16.12C12.3577 16.12 12.6084 16.3707 12.6084 16.68C12.6084 16.9894 12.3577 17.2401 12.0483 17.2401C11.739 17.2401 11.4882 16.9894 11.4882 16.68C11.4882 16.3707 11.739 16.12 12.0483 16.12Z" fill="#282C44" stroke="#282C44" stroke-width="0.351486"/>
<path id="Vector_3" d="M16.1206 11.9515C16.1206 11.6422 16.3713 11.3914 16.6807 11.3914C16.99 11.3914 17.2407 11.6422 17.2407 11.9515C17.2407 12.2609 16.99 12.5116 16.6807 12.5116C16.3713 12.5116 16.1206 12.2609 16.1206 11.9515Z" fill="#282C44" stroke="#282C44" stroke-width="0.351486"/>
<path id="Vector_4" d="M7.87989 12.0482C7.87989 12.3575 7.62914 12.6083 7.31981 12.6083C7.01049 12.6083 6.75973 12.3575 6.75973 12.0482C6.75973 11.7389 7.01049 11.4881 7.31981 11.4881C7.62914 11.4881 7.87989 11.7389 7.87989 12.0482Z" fill="#282C44" stroke="#282C44" stroke-width="0.351486"/>
<path id="Vector_5" d="M11.9516 9.20197C12.6607 9.20197 13.2762 8.80912 13.5969 8.23102H15.9444H23.8243V15.7687H17.5918V13.5969C18.1698 13.276 18.5627 12.6608 18.5627 11.9516C18.5627 10.9118 17.72 10.0691 16.6802 10.0691C15.6405 10.0691 14.7977 10.9118 14.7977 11.9516C14.7977 12.661 15.1906 13.2763 15.7687 13.5969V23.8243H8.23102V17.5918H10.4028C10.7237 18.1698 11.3389 18.5627 12.0481 18.5627C13.0879 18.5627 13.9306 17.72 13.9306 16.6802C13.9306 15.6405 13.0879 14.7977 12.0481 14.7977C11.3387 14.7977 10.7234 15.1906 10.4028 15.7687H0.175743V8.23102H6.40788V10.4028C5.82984 10.7237 5.43694 11.3389 5.43694 12.0481C5.43694 13.0879 6.27968 13.9306 7.31945 13.9306C8.35923 13.9306 9.20197 13.0879 9.20197 12.0481C9.20197 11.339 8.80912 10.7234 8.23102 10.4028V0.175743H15.7687V6.40788H13.5969C13.276 5.82984 12.6608 5.43694 11.9516 5.43694C10.9118 5.43694 10.0691 6.27968 10.0691 7.31945C10.0691 8.35923 10.9118 9.20197 11.9516 9.20197Z" fill="#282C44" stroke="#282C44" stroke-width="0.351486"/>
</g>
</svg>
