<svg width="25" height="24" viewBox="0 0 25 24" fill="none" xmlns="http://www.w3.org/2000/svg">
<g id="Iconly">
<path id="Vector (Stroke)" fill-rule="evenodd" clip-rule="evenodd" d="M11.448 1.25H13.552C14.4505 1.24997 15.1997 1.24995 15.7945 1.32991C16.4223 1.41432 16.9891 1.59999 17.4445 2.05546C17.9 2.51093 18.0857 3.07773 18.1701 3.70552C18.1928 3.87459 18.2091 4.05613 18.2207 4.25003C18.8101 4.25037 19.3084 4.25421 19.719 4.29599C20.1925 4.34415 20.6318 4.44886 21.0278 4.71346C21.3281 4.9141 21.5859 5.17191 21.7865 5.47218C22.0511 5.86818 22.1559 6.30755 22.204 6.78102C22.25 7.23336 22.25 7.79209 22.25 8.46168V21.25H22.5C22.9142 21.25 23.25 21.5858 23.25 22C23.25 22.4142 22.9142 22.75 22.5 22.75H2.5C2.08579 22.75 1.75 22.4142 1.75 22C1.75 21.5858 2.08579 21.25 2.5 21.25H2.75L2.75 8.46166C2.74998 7.79208 2.74997 7.23335 2.79598 6.78102C2.84415 6.30755 2.94886 5.86818 3.21346 5.47218C3.41409 5.17191 3.67191 4.9141 3.97218 4.71346C4.36818 4.44886 4.80755 4.34415 5.28102 4.29599C5.69165 4.25421 6.18995 4.25037 6.77927 4.25003C6.79091 4.05613 6.80718 3.87459 6.82991 3.70552C6.91432 3.07773 7.09999 2.51093 7.55546 2.05546C8.01093 1.59999 8.57773 1.41432 9.20552 1.32991C9.8003 1.24995 10.5495 1.24997 11.448 1.25ZM6.75003 5.75011C6.16742 5.75075 5.75586 5.75542 5.43283 5.78828C5.07796 5.82438 4.91399 5.8882 4.80554 5.96067C4.66905 6.05186 4.55186 6.16905 4.46066 6.30554C4.3882 6.41399 4.32438 6.57796 4.28828 6.93283C4.25091 7.30023 4.25 7.78216 4.25 8.5V21.25H6.75V14.75H6C5.58579 14.75 5.25 14.4142 5.25 14C5.25 13.5858 5.58579 13.25 6 13.25H6.75V11.75H6C5.58579 11.75 5.25 11.4142 5.25 11C5.25 10.5858 5.58579 10.25 6 10.25H6.75V8.75H6C5.58579 8.75 5.25 8.41422 5.25 8C5.25 7.58579 5.58579 7.25 6 7.25H6.75L6.75 5.94801C6.75 5.88122 6.74999 5.81525 6.75003 5.75011ZM8.25 21.25H11.75V19C11.75 18.5858 12.0858 18.25 12.5 18.25C12.9142 18.25 13.25 18.5858 13.25 19V21.25H16.75V6C16.75 5.03599 16.7484 4.38843 16.6835 3.90539C16.6214 3.44393 16.5142 3.24644 16.3839 3.11612C16.2536 2.9858 16.0561 2.87858 15.5946 2.81654C15.1116 2.7516 14.464 2.75 13.5 2.75H11.5C10.536 2.75 9.88843 2.7516 9.40539 2.81654C8.94393 2.87858 8.74643 2.9858 8.61612 3.11612C8.4858 3.24644 8.37858 3.44393 8.31654 3.90539C8.25159 4.38843 8.25 5.03599 8.25 6V21.25ZM18.25 8.75H19C19.4142 8.75 19.75 8.41422 19.75 8C19.75 7.58579 19.4142 7.25 19 7.25H18.25L18.25 5.94801C18.25 5.88122 18.25 5.81525 18.25 5.75011C18.8326 5.75075 19.2441 5.75542 19.5672 5.78828C19.922 5.82438 20.086 5.8882 20.1945 5.96067C20.3309 6.05186 20.4481 6.16905 20.5393 6.30554C20.6118 6.41399 20.6756 6.57796 20.7117 6.93283C20.7491 7.30023 20.75 7.78216 20.75 8.5V21.25H18.25V14.75H19C19.4142 14.75 19.75 14.4142 19.75 14C19.75 13.5858 19.4142 13.25 19 13.25H18.25V11.75H19C19.4142 11.75 19.75 11.4142 19.75 11C19.75 10.5858 19.4142 10.25 19 10.25H18.25V8.75ZM12.5 4.25C12.9142 4.25 13.25 4.58579 13.25 5V6.25H14.5C14.9142 6.25 15.25 6.58579 15.25 7C15.25 7.41422 14.9142 7.75 14.5 7.75H13.25V9C13.25 9.41422 12.9142 9.75 12.5 9.75C12.0858 9.75 11.75 9.41422 11.75 9V7.75H10.5C10.0858 7.75 9.75 7.41422 9.75 7C9.75 6.58579 10.0858 6.25 10.5 6.25H11.75V5C11.75 4.58579 12.0858 4.25 12.5 4.25ZM9.75 12C9.75 11.5858 10.0858 11.25 10.5 11.25H14.5C14.9142 11.25 15.25 11.5858 15.25 12C15.25 12.4142 14.9142 12.75 14.5 12.75H10.5C10.0858 12.75 9.75 12.4142 9.75 12ZM9.75 15C9.75 14.5858 10.0858 14.25 10.5 14.25H14.5C14.9142 14.25 15.25 14.5858 15.25 15C15.25 15.4142 14.9142 15.75 14.5 15.75H10.5C10.0858 15.75 9.75 15.4142 9.75 15Z" fill="#282C44"/>
</g>
</svg>
