<svg width="20" height="20" viewBox="0 0 20 20" fill="none" xmlns="http://www.w3.org/2000/svg">
<path d="M3.3335 2.91666C3.3335 2.52837 3.3335 2.33423 3.39693 2.18109C3.4815 1.9769 3.64374 1.81466 3.84793 1.73009C4.00107 1.66666 4.19521 1.66666 4.5835 1.66666H12.0835C12.4717 1.66666 12.6659 1.66666 12.8191 1.73009C13.0232 1.81466 13.1855 1.9769 13.2701 2.18109C13.3335 2.33423 13.3335 2.52837 13.3335 2.91666C13.3335 3.30494 13.3335 3.49908 13.2701 3.65222C13.1855 3.85641 13.0232 4.01865 12.8191 4.10322C12.6659 4.16666 12.4717 4.16666 12.0835 4.16666H4.5835C4.19521 4.16666 4.00107 4.16666 3.84793 4.10322C3.64374 4.01865 3.4815 3.85641 3.39693 3.65222C3.3335 3.49908 3.3335 3.30494 3.3335 2.91666Z" stroke="#282C44" stroke-width="1.5"/>
<path d="M2.0835 15H8.75016" stroke="#282C44" stroke-width="1.5" stroke-linecap="round"/>
<path d="M2.0835 8.33334H14.5835" stroke="#282C44" stroke-width="1.5" stroke-linecap="round"/>
<path d="M8.74984 18.3333H5.79728C5.32135 18.3333 5.08339 18.3333 4.85781 18.3023C4.18868 18.2105 3.56324 17.9176 3.06432 17.4623C2.89612 17.3088 2.74377 17.1261 2.4391 16.7604C1.93989 16.1614 1.6665 15.4062 1.6665 14.6265V9.10207C1.6665 8.08946 2.1268 7.13175 2.91752 6.49917L4.92012 4.89709C5.37224 4.53541 5.59829 4.35456 5.86613 4.26061C6.13396 4.16666 6.42345 4.16666 7.00244 4.16666H9.70209C10.2863 4.16666 10.5784 4.16666 10.8483 4.26221C11.1183 4.35776 11.3453 4.54156 11.7994 4.90917L13.7638 6.49942C14.5457 7.1323 14.9998 8.08437 14.9998 9.09024V10.4167" stroke="#282C44" stroke-width="1.5" stroke-linecap="round"/>
<path d="M8.33317 10V13.3333M6.6665 11.6667H9.99984" stroke="#282C44" stroke-width="1.5" stroke-linecap="round"/>
<path d="M12.3107 13.9772C12.3107 13.9772 13.1375 14.1527 14.0759 15.0911C15.0143 16.0294 15.1897 16.8562 15.1897 16.8562M16.0534 13.1135C16.8484 13.9085 16.8741 15.1717 16.1109 15.9348L14.2684 17.7774C13.5052 18.5406 12.242 18.5148 11.447 17.7198C10.652 16.9248 10.6263 15.6617 11.3894 14.8985L13.232 13.0559C13.9952 12.2927 15.2584 12.3185 16.0534 13.1135Z" stroke="#282C44" stroke-width="1.5"/>
</svg>
