<svg width="24" height="24" viewBox="0 0 24 24" fill="none" xmlns="http://www.w3.org/2000/svg">
<g id="Icon / Pharmacy" clip-path="url(#clip0_351_8101)">
<path id="Vector" d="M4.50004 12.5L12.5 4.50001C13.4283 3.57175 14.6873 3.05026 16 3.05026C17.3128 3.05026 18.5718 3.57175 19.5 4.50001C20.4283 5.42827 20.9498 6.68726 20.9498 8.00001C20.9498 9.31277 20.4283 10.5718 19.5 11.5L11.5 19.5C10.5718 20.4283 9.3128 20.9498 8.00004 20.9498C6.68729 20.9498 5.4283 20.4283 4.50004 19.5C3.57178 18.5718 3.05029 17.3128 3.05029 16C3.05029 14.6873 3.57178 13.4283 4.50004 12.5" stroke="#282C44" stroke-width="1.5" stroke-linecap="round" stroke-linejoin="round"/>
<path id="Vector_2" d="M8.5 8.5L15.5 15.5" stroke="#282C44" stroke-width="1.5" stroke-linecap="round" stroke-linejoin="round"/>
</g>
<defs>
<clipPath id="clip0_351_8101">
<rect width="24" height="24" fill="white"/>
</clipPath>
</defs>
</svg>
