<svg width="36" height="37" viewBox="0 0 36 37" fill="none" xmlns="http://www.w3.org/2000/svg">
<g id="Linear / Call / Phone Calling">
<path id="Vector" d="M20.25 3.5C20.25 3.5 23.7503 3.8182 28.205 8.27297C32.6597 12.7277 32.978 16.228 32.978 16.228" stroke="#1C274C" stroke-width="2" stroke-linecap="round"/>
<path id="Vector_2" d="M21.3105 8.80347C21.3105 8.80347 22.7955 9.22774 25.0229 11.4551C27.2502 13.6825 27.6746 15.1674 27.6746 15.1674" stroke="#1C274C" stroke-width="2" stroke-linecap="round"/>
<path id="Vector_3" d="M23.4668 23.8156L24.1501 23.0963L22.5187 21.5468L21.8354 22.2661L23.4668 23.8156ZM26.3981 22.7935L29.2639 24.443L30.3863 22.493L27.5206 20.8435L26.3981 22.7935ZM29.8169 27.8629L27.686 30.1063L29.3174 31.6558L31.4483 29.4124L29.8169 27.8629ZM26.404 30.8251C24.2515 31.0376 18.635 30.8563 12.5388 24.4381L10.9074 25.9876C17.5514 32.9825 23.8892 33.3343 26.6249 33.0643L26.404 30.8251ZM12.5388 24.4381C6.7246 18.3167 5.74933 13.1534 5.62777 10.8886L3.38101 11.0092C3.52988 13.7831 4.70765 19.4605 10.9074 25.9876L12.5388 24.4381ZM14.6018 14.4824L15.032 14.0295L13.4006 12.4799L12.9704 12.9329L14.6018 14.4824ZM15.37 8.39021L13.4785 5.71497L11.6413 7.01393L13.5328 9.68915L15.37 8.39021ZM7.07654 5.13822L4.72214 7.61696L6.35351 9.1665L8.70791 6.68777L7.07654 5.13822ZM13.7861 13.7076C12.9704 12.9329 12.9694 12.934 12.9683 12.9351C12.968 12.9354 12.9669 12.9366 12.9662 12.9373C12.9648 12.9388 12.9633 12.9404 12.9619 12.942C12.9589 12.9452 12.9559 12.9485 12.9527 12.9519C12.9464 12.9588 12.9397 12.9663 12.9327 12.9744C12.9187 12.9905 12.9033 13.009 12.8868 13.0298C12.8538 13.0715 12.8165 13.1227 12.7774 13.1838C12.6989 13.3065 12.6138 13.468 12.5417 13.6705C12.3952 14.0824 12.3153 14.6278 12.4151 15.3089C12.6112 16.6471 13.488 18.4466 15.779 20.8586L17.4104 19.3091C15.269 17.0545 14.7415 15.6659 14.6413 14.9827C14.593 14.6531 14.6421 14.4794 14.6615 14.4248C14.6724 14.3942 14.6796 14.3857 14.6726 14.3966C14.6692 14.4019 14.6625 14.4118 14.6511 14.4261C14.6454 14.4333 14.6386 14.4416 14.6305 14.451C14.6264 14.4557 14.6219 14.4606 14.6172 14.4659C14.6148 14.4685 14.6123 14.4712 14.6098 14.4739C14.6085 14.4753 14.6072 14.4767 14.6059 14.4781C14.6052 14.4788 14.6042 14.4799 14.6038 14.4803C14.6028 14.4813 14.6018 14.4824 13.7861 13.7076ZM15.779 20.8586C18.0634 23.2636 19.7885 24.209 21.1048 24.4228C21.7802 24.5324 22.327 24.4448 22.741 24.2816C22.9433 24.2018 23.1034 24.1081 23.2235 24.0229C23.2835 23.9803 23.3335 23.9399 23.3737 23.9047C23.3939 23.887 23.4116 23.8705 23.4271 23.8555C23.4349 23.8481 23.4421 23.8409 23.4487 23.8343C23.452 23.831 23.4551 23.8277 23.4581 23.8246C23.4596 23.8231 23.4611 23.8216 23.4626 23.8201C23.4634 23.8193 23.4644 23.8181 23.4647 23.8178C23.4658 23.8166 23.4668 23.8156 22.6511 23.0408C21.8354 22.2661 21.8365 22.265 21.8375 22.264C21.8378 22.2635 21.8389 22.2625 21.8395 22.2617C21.8408 22.2604 21.8422 22.259 21.8435 22.2577C21.8462 22.255 21.8488 22.2523 21.8512 22.2497C21.8563 22.2448 21.8611 22.24 21.8656 22.2356C21.8746 22.2269 21.8828 22.2194 21.89 22.2131C21.9043 22.2005 21.9149 22.1924 21.9218 22.1876C21.9359 22.1776 21.9344 22.181 21.9154 22.1885C21.8864 22.1999 21.7501 22.2481 21.4655 22.2019C20.8616 22.1038 19.5587 21.5708 17.4104 19.3091L15.779 20.8586ZM13.4785 5.71497C11.9581 3.5646 8.91581 3.20181 7.07654 5.13822L8.70791 6.68777C9.49217 5.86209 10.8728 5.92695 11.6413 7.01393L13.4785 5.71497ZM5.62777 10.8886C5.59562 10.2897 5.85643 9.68984 6.35351 9.1665L4.72214 7.61696C3.91837 8.46318 3.30745 9.63872 3.38101 11.0092L5.62777 10.8886ZM27.686 30.1063C27.2675 30.547 26.8297 30.7831 26.404 30.8251L26.6249 33.0643C27.7456 32.9536 28.6525 32.356 29.3174 31.6558L27.686 30.1063ZM15.032 14.0295C16.4834 12.5015 16.5862 10.1102 15.37 8.39021L13.5328 9.68915C14.166 10.5848 14.0689 11.7763 13.4006 12.4799L15.032 14.0295ZM29.2639 24.443C30.4951 25.1518 30.7361 26.8952 29.8169 27.8629L31.4483 29.4124C33.4057 27.3515 32.8357 23.9029 30.3863 22.493L29.2639 24.443ZM24.1501 23.0963C24.7282 22.4876 25.6291 22.3508 26.3981 22.7935L27.5206 20.8435C25.8728 19.895 23.8292 20.167 22.5187 21.5468L24.1501 23.0963Z" fill="#1C274C"/>
</g>
</svg>
