<svg width="20" height="20" viewBox="0 0 20 20" fill="none" xmlns="http://www.w3.org/2000/svg">
<g id="Info Circle">
<path id="Info Circle_2" fill-rule="evenodd" clip-rule="evenodd" d="M0 10C0 4.481 4.48 0 10 0C15.53 0 20 4.481 20 10C20 15.521 15.53 20 10 20C4.48 20 0 15.521 0 10ZM13.6503 8.53033C13.9432 8.23744 13.9432 7.76256 13.6503 7.46967C13.3574 7.17678 12.8826 7.17678 12.5897 7.46967L8.37389 11.6855L6.53022 9.84256C6.23726 9.54973 5.76239 9.54983 5.46956 9.84278C5.17673 10.1357 5.17683 10.6106 5.46978 10.9034L7.84378 13.2764C8.13669 13.5692 8.61148 13.5692 8.90433 13.2763L13.6503 8.53033Z" fill="#333334"/>
</g>
</svg>
