<svg width="24" height="25" viewBox="0 0 24 25" fill="none" xmlns="http://www.w3.org/2000/svg">
<g id="Linear / Security / Shield Keyhole Minimalistic">
<path id="Vector" d="M3 10.6913C3 7.49367 3 5.89488 3.37752 5.35701C3.75503 4.81914 5.25832 4.30456 8.26491 3.27539L8.83772 3.07932C10.405 2.54284 11.1886 2.2746 12 2.2746C12.8114 2.2746 13.595 2.54284 15.1623 3.07932L15.7351 3.27539C18.7417 4.30456 20.245 4.81914 20.6225 5.35701C21 5.89488 21 7.49367 21 10.6913C21 11.1742 21 11.698 21 12.266C21 17.904 16.761 20.6401 14.1014 21.8019C13.38 22.117 13.0193 22.2746 12 22.2746C10.9807 22.2746 10.62 22.117 9.89856 21.8019C7.23896 20.6401 3 17.904 3 12.266C3 11.698 3 11.1742 3 10.6913Z" stroke="#282C44" stroke-width="1.5"/>
<path id="Vector_2" d="M12 13.7746V16.7746M13.4997 13.3722C12.0651 14.2005 10.2306 13.709 9.40236 12.2743C8.57407 10.8397 9.06561 9.00525 10.5003 8.17696C11.085 7.83933 11.7363 7.721 12.3587 7.79645C13.2632 7.90609 14.107 8.425 14.5976 9.27485C15.0883 10.1247 15.1158 11.1149 14.7585 11.9531C14.5126 12.5298 14.0845 13.0346 13.4997 13.3722Z" stroke="#282C44" stroke-width="1.5" stroke-linecap="round"/>
</g>
</svg>
