<svg width="41" height="40" viewBox="0 0 41 40" fill="none" xmlns="http://www.w3.org/2000/svg">
<g id="Linear / Electronic, Devices / Smartphone">
<path id="Vector" d="M30.4999 23.3334C30.4999 29.6187 30.4999 32.7615 28.5473 34.714C26.5948 36.6667 23.4519 36.6667 17.1666 36.6667C10.8812 36.6667 7.7385 36.6667 5.78587 34.714C3.83325 32.7615 3.83325 29.6187 3.83325 23.3334V16.6667C3.83325 10.3813 3.83325 7.23862 5.78587 5.28599C7.7385 3.33337 10.8812 3.33337 17.1666 3.33337C23.4519 3.33337 26.5948 3.33337 28.5473 5.28599C29.6 6.33872 30.0851 7.73735 30.3088 9.78787" stroke="#282C44" stroke-width="2"/>
<path id="Vector_2" d="M32.1667 13.5509L33.0446 13.1406C35.639 11.9281 36.9363 11.3218 37.8849 11.8698C38.8334 12.4177 38.8334 13.7734 38.8334 16.4848V16.8485C38.8334 19.5599 38.8334 20.9155 37.8849 21.4635C36.9363 22.0115 35.639 21.4052 33.0446 20.1926L32.1667 19.7824V13.5509Z" stroke="#282C44" stroke-width="2"/>
<path id="Vector_3" d="M15.5 16.1459C15.5 12.7214 15.5 11.0092 16.5088 9.85674C16.6935 9.64576 16.8999 9.45231 17.1249 9.27917C18.3542 8.33337 20.1806 8.33337 23.8333 8.33337C27.4861 8.33337 29.3124 8.33337 30.5418 9.27917C30.7668 9.45231 30.9731 9.64576 31.1578 9.85674C32.1667 11.0092 32.1667 12.7214 32.1667 16.1459V17.1875C32.1667 20.612 32.1667 22.3242 31.1578 23.4767C30.9731 23.6876 30.7668 23.8811 30.5418 24.0542C29.3124 25 27.4861 25 23.8333 25C20.1806 25 18.3542 25 17.1249 24.0542C16.8999 23.8811 16.6935 23.6876 16.5088 23.4767C15.5 22.3242 15.5 20.612 15.5 17.1875V16.1459Z" stroke="#282C44" stroke-width="2"/>
<path id="Vector_4" d="M22.1667 15.8334H24.6667M24.6667 15.8334H27.1667M24.6667 15.8334V18.3334M24.6667 15.8334V13.3334" stroke="#282C44" stroke-width="2" stroke-linecap="round"/>
<path id="Vector_5" d="M22.1667 31.6667H12.1667" stroke="#282C44" stroke-width="2" stroke-linecap="round"/>
</g>
</svg>
