<svg width="36" height="37" viewBox="0 0 36 37" fill="none" xmlns="http://www.w3.org/2000/svg">
<g id="Linear / Video, Audio, Sound / Videocamera">
<path id="Vector" d="M3 17.75C3 12.8188 3 10.3532 4.36194 8.69365C4.61127 8.38984 4.88984 8.11127 5.19365 7.86194C6.85317 6.5 9.31878 6.5 14.25 6.5C19.1812 6.5 21.6468 6.5 23.3064 7.86194C23.6101 8.11127 23.8887 8.38984 24.138 8.69365C25.5 10.3532 25.5 12.8188 25.5 17.75V19.25C25.5 24.1812 25.5 26.6468 24.138 28.3064C23.8887 28.6101 23.6101 28.8887 23.3064 29.138C21.6468 30.5 19.1812 30.5 14.25 30.5C9.31878 30.5 6.85317 30.5 5.19365 29.138C4.88984 28.8887 4.61127 28.6101 4.36194 28.3064C3 26.6468 3 24.1812 3 19.25V17.75Z" stroke="#1C274C" stroke-width="2"/>
<path id="Vector_2" d="M25.5 14.7503L26.4876 14.2565C29.4063 12.7971 30.8658 12.0674 31.9329 12.7269C33 13.3864 33 15.0181 33 18.2814V18.7191C33 21.9825 33 23.6141 31.9329 24.2736C30.8658 24.9332 29.4063 24.2034 26.4876 22.7441L25.5 22.2503V14.7503Z" stroke="#1C274C" stroke-width="2"/>
</g>
</svg>
