<svg width="20" height="18" viewBox="0 0 20 18" fill="none" xmlns="http://www.w3.org/2000/svg">
<g clip-path="url(#clip0_300_65933)">
<path d="M9.98504 17.9995C7.30616 17.9995 4.62727 18.0015 1.94839 17.9982C1.0252 17.9969 0.382839 17.5514 0.10388 16.7302C-0.10315 16.1213 0.0144382 15.5588 0.328424 15.0179C1.35357 13.2508 2.37121 11.4791 3.3926 9.70932C5.05384 6.83159 6.71446 3.95322 8.37696 1.0768C9.2032 -0.352595 10.8094 -0.360435 11.6313 1.06242C14.3152 5.7086 16.9853 10.3639 19.6861 14.9996C20.4116 16.2448 19.7993 17.6206 18.7022 17.9172C18.4639 17.9812 18.2081 17.9956 17.9604 17.9963C15.3022 18.0015 12.6439 17.9995 9.98629 17.9995H9.98504ZM9.9963 16.642C12.6652 16.642 15.3341 16.642 18.0023 16.6426C18.26 16.6426 18.5058 16.6257 18.6503 16.3506C18.7904 16.0841 18.6559 15.8744 18.5302 15.6568C15.9714 11.223 13.4145 6.78913 10.8563 2.35462C10.7218 2.12205 10.5949 1.8836 10.4498 1.65887C10.2002 1.27147 9.81429 1.27801 9.56035 1.66541C9.51344 1.73727 9.47466 1.81436 9.43213 1.88883C7.39935 5.40939 5.36658 8.9293 3.3338 12.4499C2.69958 13.5487 2.0641 14.6469 1.433 15.7476C1.23473 16.0932 1.2685 16.3977 1.54058 16.5401C1.68131 16.6139 1.8602 16.6361 2.02219 16.6368C4.68044 16.6426 7.33868 16.6407 9.99692 16.6407L9.9963 16.642Z" fill="#E3032C"/>
<path d="M9.12991 7.03597C9.12991 6.83998 9.12804 6.644 9.12991 6.44801C9.13492 5.97503 9.36071 5.71502 9.84733 5.61965C10.267 5.53733 10.6986 5.7503 10.8293 6.12333C10.8743 6.25137 10.8875 6.39902 10.8825 6.53621C10.8262 8.20013 10.7661 9.86339 10.7017 11.5267C10.688 11.8912 10.4278 12.0957 10.0043 12.0976C9.55648 12.0996 9.32881 11.9206 9.31318 11.5365C9.25188 10.0365 9.19496 8.53592 9.13617 7.03532C9.13367 7.03532 9.13116 7.03532 9.12866 7.03532L9.12991 7.03597Z" fill="#E3032C"/>
<path d="M9.10378 13.9425C9.10691 13.3938 9.51597 12.975 10.0407 12.9835C10.5361 12.9914 10.947 13.4323 10.9439 13.9543C10.9408 14.4632 10.5092 14.9225 10.0295 14.9277C9.52222 14.9329 9.10003 14.4841 9.10378 13.9432V13.9425Z" fill="#E3032C"/>
</g>
<defs>
<clipPath id="clip0_300_65933">
<rect width="20" height="18" fill="white"/>
</clipPath>
</defs>
</svg>
